<?xml version="1.0" encoding="utf-8"?>
<!-- Generator: Adobe Illustrator 23.0.3, SVG Export Plug-In . SVG Version: 6.00 Build 0)  -->
<svg version="1.1" id="Слой_1" xmlns="http://www.w3.org/2000/svg" xmlns:xlink="http://www.w3.org/1999/xlink" x="0px" y="0px"
	 viewBox="0 0 500 500" style="enable-background:new 0 0 500 500;" xml:space="preserve">
<style type="text/css">
	.st0{fill:#B3DCFF;}
	.st1{fill:#BBD070;}
	.st2{fill:#97A43C;}
	.st3{fill:#48753A;}
	.st4{fill:#78C2FF;}
	.st5{fill:#F3F3F3;}
	.st6{opacity:0.53;}
	.st7{fill:#4AA2E8;}
	.st8{fill:#4DA8F2;}
	.st9{fill:#DAE8F5;}
	.st10{fill:#73C0FF;}
	.st11{fill:#E3F2FF;}
	.st12{fill:#D6D6D6;}
	.st13{fill:#E8E8E8;}
	.st14{fill:#C2C2C2;}
	.st15{fill:#1A598C;}
	.st16{fill:#2273B5;}
	.st17{fill:#6EB2EB;}
	.st18{fill:#5C544D;}
	.st19{fill:#3C4145;}
	.st20{fill:#33373B;}
	.st21{fill:#EEA886;}
	.st22{fill:#2F4563;}
	.st23{fill:#FF7E55;}
	.st24{fill:#877373;}
	.st25{fill:#E3DDDD;}
	.st26{fill:#D88A51;}
	.st27{fill:#AB4D1A;}
	.st28{fill:#C2BEBC;}
	.st29{fill:#C96442;}
</style>
<g>
	<g>
		<g>
			<path class="st0" d="M387.69,273.32H286.14c-7.35,0-13.34-5.98-13.34-13.34v-71.01c0-7.35,5.98-13.34,13.34-13.34h101.55
				c7.36,0,13.34,5.98,13.34,13.34v71.01C401.03,267.34,395.05,273.32,387.69,273.32z M286.14,176.87
				c-6.68,0-12.11,5.43-12.11,12.11v71.01c0,6.68,5.43,12.11,12.11,12.11h101.55c6.68,0,12.11-5.43,12.11-12.11v-71.01
				c0-6.68-5.43-12.11-12.11-12.11H286.14z"/>
		</g>
	</g>
	<g>
		<g>
			<g>
				<path class="st1" d="M348.82,98.47c0,0,13.58,20.61,2.12,31.56c-11.46,10.95-12.81-1.28-12.81-1.28s-6.13,0.4,6.06-13.54
					C349.93,108.63,348.82,98.47,348.82,98.47z"/>
			</g>
		</g>
		<g>
			<g>
				<path class="st2" d="M385.19,87.95c0,0,9.69,18.72-13.12,36.26c-22.8,17.54-22.69,29.63-22.69,29.63S333.33,110.45,385.19,87.95
					z"/>
			</g>
		</g>
		<g>
			<g>
				<path class="st3" d="M346.46,145.85c-8.67-0.24,4.03-22.25,18.14-26.72c14.11-4.47,25.39-2.61,33.98-8.07
					C398.58,111.06,389.14,147.04,346.46,145.85z"/>
			</g>
		</g>
	</g>
	<g>
		<g>
			<rect x="192.14" y="277.2" class="st4" width="1.08" height="129.64"/>
		</g>
	</g>
	<path class="st5" d="M348.08,144.28v-10.52c0-1.45-0.09-2.88-0.27-4.26c-1.52-11.99-9.32-21.13-18.72-21.13H93.17
		c-9.4,0-17.2,9.13-18.72,21.13c-0.18,1.39-0.27,2.81-0.27,4.26v212.22c0,0.02,0,0.04,0,0.06v10.51c0,14.02,8.5,25.4,18.99,25.4
		H329.1c10.49,0,18.99-11.37,18.99-25.4V144.32C348.09,144.31,348.08,144.29,348.08,144.28z"/>
	<g>
		<g>
			<path class="st4" d="M318.36,345.88H186.08c-6.21,0-11.26-5.05-11.26-11.26v-88.97c0-6.21,5.05-11.26,11.26-11.26h132.28
				c6.21,0,11.26,5.05,11.26,11.26v88.97C329.62,340.83,324.57,345.88,318.36,345.88z M186.08,235.62c-5.53,0-10.03,4.5-10.03,10.03
				v88.97c0,5.53,4.5,10.03,10.03,10.03h132.28c5.53,0,10.03-4.5,10.03-10.03v-88.97c0-5.53-4.5-10.03-10.03-10.03H186.08z"/>
		</g>
	</g>
	<g class="st6">
		<g>
			<path class="st7" d="M348.08,243v102.98c0,2.43-0.26,4.77-0.73,6.99c-0.45,0.06-0.91,0.09-1.38,0.09H213.69
				c-5.88,0-10.65-4.77-10.65-10.65v-88.97c0-5.88,4.77-10.65,10.65-10.65h132.28C346.7,242.79,347.4,242.87,348.08,243z"/>
		</g>
	</g>
	<g>
		<path class="st8" d="M347.82,129.5H74.45c1.52-11.99,9.32-21.13,18.72-21.13H329.1C338.5,108.37,346.3,117.5,347.82,129.5z"/>
	</g>
	<g>
		<path class="st8" d="M172.87,155.42h-26.82c-5.78,0-10.46-4.68-10.46-10.46V120.3c0-5.78,4.68-10.46,10.46-10.46h26.82
			c5.78,0,10.46,4.68,10.46,10.46v24.66C183.33,150.74,178.65,155.42,172.87,155.42z"/>
	</g>
	<g>
		<path class="st8" d="M153.07,136.87h-22.19c-3.53,0-6.39-2.86-6.39-6.39v-10.44c0-3.53,2.86-6.39,6.39-6.39h22.19
			c3.53,0,6.39,2.86,6.39,6.39v10.44C159.46,134.01,156.6,136.87,153.07,136.87z"/>
	</g>
	<g>
		<g>
			<rect x="116.26" y="391.09" class="st4" width="89.5" height="1.08"/>
		</g>
	</g>
	<g>
		<g>
			<path class="st9" d="M372.8,259.9v88.97c0,5.88-4.77,10.65-10.65,10.65H229.87c-5.88,0-10.65-4.77-10.65-10.65V259.9
				c0-5.88,4.77-10.64,10.65-10.64h132.28C368.04,249.26,372.8,254.02,372.8,259.9z"/>
		</g>
	</g>
	<g>
		<g>
			<path class="st4" d="M281.45,266.3H232.8c-0.77,0-1.39-0.62-1.39-1.39v-2.82c0-0.77,0.62-1.39,1.39-1.39h48.65
				c0.77,0,1.39,0.62,1.39,1.39v2.82C282.84,265.68,282.22,266.3,281.45,266.3z"/>
		</g>
	</g>
	<g>
		<g>
			<path class="st4" d="M281.45,278.32H232.8c-0.77,0-1.39-0.62-1.39-1.39v-2.83c0-0.77,0.62-1.39,1.39-1.39h48.65
				c0.77,0,1.39,0.62,1.39,1.39v2.83C282.84,277.7,282.22,278.32,281.45,278.32z"/>
		</g>
	</g>
	<g>
		<g>
			<path class="st4" d="M278.17,349.86h-42.09c-2.58,0-4.67-2.09-4.67-4.67v-54.02c0-2.58,2.09-4.67,4.67-4.67h42.09
				c2.58,0,4.67,2.09,4.67,4.67v54.02C282.84,347.77,280.75,349.86,278.17,349.86z"/>
		</g>
	</g>
	<g>
		<g>
			<rect x="127.94" y="199.39" class="st9" width="36.59" height="7.58"/>
		</g>
	</g>
	<g>
		<g>
			<rect x="127.94" y="212.64" class="st9" width="36.59" height="7.58"/>
		</g>
	</g>
	<g>
		<g>
			<path class="st10" d="M358.62,349.86H299.4c-3.63,0-6.57-2.94-6.57-6.57v-76.01c0-3.63,2.94-6.57,6.57-6.57h59.22
				c3.63,0,6.57,2.94,6.57,6.57v76.01C365.19,346.91,362.25,349.86,358.62,349.86z"/>
		</g>
	</g>
	<g>
		<g>
			<path class="st8" d="M205.76,412.6c-4.82,0-8.75-3.92-8.75-8.75c0-4.82,3.92-8.75,8.75-8.75c4.82,0,8.75,3.92,8.75,8.75
				C214.51,408.67,210.59,412.6,205.76,412.6z M205.76,396.41c-4.11,0-7.45,3.34-7.45,7.45c0,4.11,3.34,7.45,7.45,7.45
				s7.45-3.34,7.45-7.45C213.21,399.75,209.87,396.41,205.76,396.41z"/>
		</g>
	</g>
	<g>
		<g>
			<path class="st10" d="M465.22,150.86v71.01c0,7.03-5.7,12.72-12.72,12.72H350.94c-7.03,0-12.72-5.69-12.72-12.72v-71.01
				c0-7.03,5.7-12.72,12.72-12.72h101.55C459.52,138.14,465.22,143.83,465.22,150.86z"/>
		</g>
	</g>
	<g>
		<g>
			<path class="st11" d="M465.22,150.86l-0.22,7.06H338l0.22-7.06c0-7.03,5.7-12.72,12.72-12.72h101.55
				C459.52,138.14,465.22,143.83,465.22,150.86z"/>
		</g>
	</g>
	<g>
		<g>
			<path class="st9" d="M378.06,226.46H352.5c-3.3,0-5.99-2.69-5.99-5.99v-50.94c0-3.3,2.69-5.99,5.99-5.99h25.55
				c3.3,0,5.99,2.69,5.99,5.99v50.94C384.04,223.78,381.36,226.46,378.06,226.46z M352.5,165.54c-2.21,0-4,1.8-4,4v50.94
				c0,2.21,1.8,4,4,4h25.55c2.21,0,4-1.79,4-4v-50.94c0-2.21-1.79-4-4-4H352.5z"/>
		</g>
	</g>
	<g>
		<g>
			<path class="st10" d="M358.55,148.87c0,3.05-2.47,5.52-5.52,5.52c-3.05,0-5.52-2.47-5.52-5.52c0-3.05,2.47-5.52,5.52-5.52
				C356.08,143.35,358.55,145.82,358.55,148.87z"/>
		</g>
	</g>
	<g>
		<g>
			<rect x="392.33" y="197.02" class="st11" width="7.74" height="28.45"/>
		</g>
	</g>
	<g>
		<g>
			<rect x="403.34" y="194.15" class="st11" width="7.73" height="31.32"/>
		</g>
	</g>
	<g>
		<g>
			<rect x="425.94" y="188.09" class="st11" width="7.74" height="37.38"/>
		</g>
	</g>
	<g>
		<g>
			<rect x="414.5" y="200.11" class="st11" width="7.73" height="25.36"/>
		</g>
	</g>
	<g>
		<g>
			<rect x="436.69" y="197.92" class="st11" width="7.74" height="27.55"/>
		</g>
	</g>
	<g>
		<g>
			<rect x="447.37" y="183.42" class="st11" width="7.74" height="42.05"/>
		</g>
	</g>
	<g>
		<g>
			<g>
				<g>
					<polygon class="st12" points="49.23,179.52 22.51,163.28 31.91,163 					"/>
				</g>
			</g>
		</g>
		<g>
			<g>
				<g>
					<polygon class="st13" points="49.23,179.52 41.33,165.72 34.29,165.28 					"/>
				</g>
			</g>
		</g>
		<g>
			<g>
				<g>
					<polygon class="st14" points="28.66,167.02 27.98,170.43 49.23,179.52 					"/>
				</g>
			</g>
		</g>
	</g>
	<g>
		<g>
			<g>
				<polygon class="st15" points="488.05,465.68 487.07,465.64 491.96,343 407.46,343 402.58,465.68 401.61,465.64 406.53,342.02 
					492.97,342.02 				"/>
			</g>
		</g>
		<g>
			<g>
				<polygon class="st15" points="495.96,465.68 491.07,343 406.58,343 411.46,465.64 410.49,465.68 405.57,342.02 492,342.02 
					496.93,465.64 				"/>
			</g>
		</g>
		<g>
			<polygon class="st15" points="410.98,425.78 496.44,425.78 491.54,302.63 406.07,302.63 			"/>
		</g>
		<g>
			<polygon class="st11" points="485.15,425.78 399.68,425.78 404.59,302.63 490.05,302.63 			"/>
		</g>
		<g>
			<g>
				<g>
					<path class="st4" d="M441.77,321.71c-2.07-5.8-7.62-9.36-13.45-9.18c-1.42,0.04-2.84,0.3-4.25,0.81
						c-4.25,1.52-7.3,4.91-8.56,8.91c-0.87,2.77-0.87,5.84,0.18,8.79c0.1,0.29,0.22,0.58,0.34,0.86c0.55,1.28,1.28,2.43,2.15,3.45
						c3.63,4.26,9.64,6.06,15.22,4.06C440.6,336.84,444.35,328.92,441.77,321.71z M432.23,336.15c-4.18,1.5-8.69,0.15-11.41-3.05
						c-0.65-0.76-1.2-1.63-1.61-2.58c-0.09-0.21-0.18-0.43-0.25-0.65c-0.79-2.21-0.79-4.51-0.14-6.59c0.94-3,3.23-5.54,6.41-6.68
						c1.05-0.37,2.13-0.57,3.19-0.6c4.38-0.13,8.53,2.54,10.09,6.88C440.44,328.28,437.63,334.22,432.23,336.15z"/>
				</g>
			</g>
			<g>
				<g>
					<path class="st15" d="M418.82,323.28l-3.31-1.03c1.25-4,4.3-7.39,8.56-8.91c1.41-0.5,2.83-0.76,4.25-0.81l0.1,3.47
						c-1.06,0.03-2.13,0.23-3.19,0.6C422.05,317.74,419.76,320.28,418.82,323.28z"/>
				</g>
			</g>
			<g>
				<g>
					<path class="st16" d="M419.21,330.52l-3.18,1.38c-0.12-0.28-0.24-0.57-0.34-0.86c-1.05-2.95-1.05-6.02-0.18-8.79l3.31,1.03
						c-0.65,2.08-0.66,4.38,0.14,6.59C419.04,330.09,419.12,330.31,419.21,330.52z"/>
				</g>
			</g>
			<g>
				<g>
					<path class="st8" d="M418.18,335.35c-0.86-1.02-1.59-2.17-2.15-3.45l3.18-1.38c0.42,0.96,0.96,1.82,1.61,2.58L418.18,335.35z"
						/>
				</g>
			</g>
		</g>
		<g>
			<g>
				<path class="st17" d="M474.67,319.19h-20.81c-0.88,0-1.59-0.71-1.59-1.59v-3.21c0-0.88,0.71-1.59,1.59-1.59h20.81
					c0.88,0,1.59,0.71,1.59,1.59v3.21C476.26,318.48,475.55,319.19,474.67,319.19z"/>
			</g>
		</g>
		<g>
			<g>
				<path class="st17" d="M474.67,329.09h-20.81c-0.88,0-1.59-0.71-1.59-1.59v-3.21c0-0.88,0.71-1.59,1.59-1.59h20.81
					c0.88,0,1.59,0.71,1.59,1.59v3.21C476.26,328.38,475.55,329.09,474.67,329.09z"/>
			</g>
		</g>
		<g>
			<g>
				<path class="st17" d="M474.67,339h-20.81c-0.88,0-1.59-0.71-1.59-1.59v-3.21c0-0.88,0.71-1.59,1.59-1.59h20.81
					c0.88,0,1.59,0.71,1.59,1.59v3.21C476.26,338.29,475.55,339,474.67,339z"/>
			</g>
		</g>
		<g>
			<g>
				<g>
					<rect x="412.49" y="370.05" class="st4" width="9" height="45.34"/>
				</g>
			</g>
			<g>
				<g>
					<rect x="425.3" y="365.47" class="st4" width="9" height="49.92"/>
				</g>
			</g>
			<g>
				<g>
					<rect x="438.28" y="374.97" class="st4" width="9" height="40.42"/>
				</g>
			</g>
			<g>
				<g>
					<rect x="451.26" y="356.24" class="st4" width="9" height="59.15"/>
				</g>
			</g>
			<g>
				<g>
					<rect x="464.88" y="362.13" class="st4" width="9" height="53.26"/>
				</g>
			</g>
		</g>
	</g>
	<g>
		<path class="st18" d="M372.87,451.07c0,0,0.54,3.98,0.61,4.58c0.07,0.6,6.04-0.35,6.04-0.35l0.48-4.73
			C380,450.56,373.62,450.51,372.87,451.07z"/>
	</g>
	<g>
		<path class="st19" d="M373.42,455.14c0,0-1.89,2.4-3.72,3.44c-1.83,1.04-4.7,1.46-5.78,2.54c-0.78,0.78-2.84,4.14,4.75,4.07
			c7.6-0.07,11.26,0.47,12.07-0.81c0.81-1.29-1.18-9.51-1.18-9.51S377.76,455.56,373.42,455.14z"/>
	</g>
	<g>
		<path class="st18" d="M330.11,451.07c0,0,0.54,3.98,0.61,4.58c0.07,0.6,6.04-0.35,6.04-0.35l0.48-4.73
			C337.24,450.56,330.85,450.51,330.11,451.07z"/>
	</g>
	<g>
		<path class="st19" d="M330.66,455.14c0,0-1.89,2.4-3.72,3.44c-1.83,1.04-8.56,1.9-9.64,2.98c-0.78,0.78-2.08,3.92,8.61,3.63
			c7.59-0.21,11.26,0.47,12.07-0.81c0.81-1.29-1.18-9.51-1.18-9.51S335.1,455.6,330.66,455.14z"/>
	</g>
	<g>
		<path class="st20" d="M370.75,348.38c0,0,3.18,9.87,2.76,18.38c-0.42,8.51,1.64,17.82,2.49,26.7c0.94,9.91,4.78,33.36,4.92,38.66
			c0.14,5.3-0.6,22.22-0.6,22.22l-7.69,0.19c0,0-6.46-41-8.14-45.18c-1.67-4.18-9.97-34.01-10.25-37.35
			C353.96,368.63,370.75,348.38,370.75,348.38z"/>
	</g>
	<g>
		<path class="st19" d="M338.41,350.13c0,0-4.23,23.31-4.78,28.52c-0.56,5.21-0.93,25.19-1.21,28.45
			c-0.28,3.25-1.86,42.58-3.35,47.42h8.58c0,0,8.81-28.59,8.81-42.12c0-13.53,5.83-29.4,9.6-38.33c3.76-8.92,12.38-9.14,14.7-25.69
			C370.75,348.38,341.54,344.88,338.41,350.13z"/>
	</g>
	<g>
		<path class="st21" d="M355.9,273.63c0,0-7.87-1.61-10.41,4.59c-2.54,6.2-0.44,17.48,3.53,18.28c3.97,0.81,9.48-0.8,10.85-4.65
			c1.36-3.84,2.29-9.24,1.67-12.64C360.92,275.8,358.01,274.32,355.9,273.63z"/>
	</g>
	<g>
		<path class="st21" d="M310.64,356.13c0,0-2.38,2.55-3.17,2.83c-0.79,0.28-2.39-1.02-8.09-1.22c-0.5-0.02-1.36,0.47-1.13,1.12
			c0.23,0.65,2.27,3.3,3.34,3.53c1.07,0.23,6.65,1.07,9.04,0c2.4-1.07,3.93-4.23,3.93-4.23L310.64,356.13z"/>
	</g>
	<g>
		<path class="st21" d="M349.87,296.64c0,0,0.62,1.96,0.27,3.03c-0.36,1.07,9.79-0.5,9.79-0.5s-0.02-5.51,0.83-10.3
			C361.61,284.08,349.87,296.64,349.87,296.64z"/>
	</g>
	<g>
		<path class="st22" d="M360.76,288.87c0,0-0.52,1.26-3.45,1.26s-7.01-3.26-8.27-3.49c-1.26-0.23-1.38-0.93-1.38-0.93l-0.58,1.21
			l-1.25,0.28c0,0,0.62-3.58-1.34-4.7s0.08-11.29,9.75-9.53c0,0,7.34,0.84,7.72,4.88C362.33,281.91,362.02,286.63,360.76,288.87z"/>
	</g>
	<g>
		<path class="st23" d="M386.12,331.9c-0.81-1.74-5.82-18.17-7.06-20.03c-1.24-1.86-4.71-7.62-10.04-9.42
			c-5.33-1.8-11.15-4.52-11.15-4.52l-8.52,1.45c0,0-4.95,2.4-11.14,5.29c0,0-7.24,2.09-7.93,9.12c-0.37,3.72-3.65,17.93-4.39,19.6
			c-0.74,1.67-16.02,22.75-16.33,23.31c-0.31,0.56,3.94,3.5,4.43,3.25c0.5-0.25,17.54-18.63,18.35-20.42c0,0,5.26-10.65,5.38-12.82
			c0,0,0.13,6.18,0.38,7.92c0.25,1.74-2.26,23.98-2.14,24.91c0.13,0.93,16.98,4.26,24.85,3.39c7.87-0.87,13.5-3.83,13.5-3.83
			s-0.25-1.02-0.61-2.58c3.74-5.44,11.28-16.48,12.14-18.17C386.81,336.4,386.92,333.64,386.12,331.9z M372.64,345.98l-0.8,1.65
			c-0.53-2.92-0.89-5.53-0.71-6.57c0.5-2.91,1.43-19.58,1.43-19.58l5.44,13.48L372.64,345.98z"/>
	</g>
	<g>
		<path class="st23" d="M349.27,300.04c0,0,0.03-1.91,0.9-2.1c0.87-0.18,9.57-1.02,10.63-0.6v2.23
			C360.81,299.57,358.76,300.83,349.27,300.04z"/>
	</g>
	<g>
		<path class="st21" d="M347.62,284.23c0.06-0.7,1.46-2.89,2.44-0.93c0.98,1.95-0.23,4.97-1.19,4.88
			C347.92,288.09,347.49,286,347.62,284.23z"/>
	</g>
	<g>
		<g>
			<g>
				<g>
					<g>
						<polygon class="st24" points="146.8,152.09 147.56,152.1 147.6,148.74 130.6,145.96 130.69,138.11 133.62,138.15 
							133.63,137.39 129.94,137.35 129.83,146.6 146.83,149.39 						"/>
					</g>
				</g>
			</g>
		</g>
		<g>
			<g>
				<g>
					
						<rect x="133.3" y="133.57" transform="matrix(-0.9999 -0.0117 0.0117 -0.9999 292.5762 277.5487)" class="st25" width="27.6" height="8.69"/>
				</g>
			</g>
		</g>
	</g>
	<g>
		
			<rect x="145.28" y="151.48" transform="matrix(-1 -1.224647e-16 1.224647e-16 -1 294.3434 328.4134)" class="st24" width="3.78" height="25.46"/>
	</g>
	<g>
		<g>
			<g>
				<path class="st18" d="M93.23,315.79c0,0-0.98,3.83-1.11,4.41c-0.13,0.58-6.14-1.01-6.14-1.01l0.01-4.69
					C85.98,314.5,92.52,315.16,93.23,315.79z"/>
			</g>
		</g>
	</g>
	<g>
		<g>
			<g>
				<path class="st19" d="M92.24,319.72c0,0,1.68,2.55,3.44,3.78c1.76,1.22,8.56,2.81,9.56,3.99c0.72,0.85,1.71,4.07-9.2,2.6
					c-7.75-1.04-11.58-0.78-12.28-2.13c-0.7-1.35,2.21-9.18,2.21-9.18S87.63,319.68,92.24,319.72z"/>
			</g>
		</g>
	</g>
	<g>
		<g>
			<g>
				
					<rect x="-28.98" y="332.03" transform="matrix(0.0968 -0.9953 0.9953 0.0968 -239.5311 402.8538)" class="st0" width="262.38" height="2.76"/>
			</g>
		</g>
	</g>
	<g>
		<g>
			<g>
				
					<rect x="-73.39" y="327.72" transform="matrix(0.0968 -0.9953 0.9953 0.0968 -275.3493 354.7628)" class="st0" width="262.38" height="2.76"/>
			</g>
		</g>
	</g>
	<g>
		<g>
			<g>
				<g>
					
						<rect x="90.82" y="183.48" transform="matrix(0.0966 -0.9953 0.9953 0.0966 -121.5336 277.6812)" class="st0" width="2.76" height="44.62"/>
				</g>
			</g>
		</g>
		<g>
			<g>
				<g>
					
						<rect x="88.82" y="204.13" transform="matrix(0.0967 -0.9953 0.9953 0.0967 -143.8997 294.3299)" class="st0" width="2.76" height="44.62"/>
				</g>
			</g>
		</g>
		<g>
			<g>
				<g>
					
						<rect x="86.82" y="224.78" transform="matrix(0.0966 -0.9953 0.9953 0.0966 -166.2616 310.9934)" class="st0" width="2.76" height="44.62"/>
				</g>
			</g>
		</g>
		<g>
			<g>
				<g>
					
						<rect x="84.81" y="245.43" transform="matrix(0.0967 -0.9953 0.9953 0.0967 -188.6273 327.6392)" class="st0" width="2.76" height="44.62"/>
				</g>
			</g>
		</g>
		<g>
			<g>
				<g>
					
						<rect x="82.81" y="266.08" transform="matrix(0.0966 -0.9953 0.9953 0.0966 -210.9872 344.313)" class="st0" width="2.76" height="44.62"/>
				</g>
			</g>
		</g>
		<g>
			<g>
				<g>
					
						<rect x="80.8" y="286.73" transform="matrix(0.0966 -0.9953 0.9953 0.0966 -233.3472 360.9875)" class="st0" width="2.76" height="44.62"/>
				</g>
			</g>
		</g>
		<g>
			<g>
				<g>
					
						<rect x="78.8" y="307.38" transform="matrix(0.0964 -0.9953 0.9953 0.0964 -255.7002 377.7199)" class="st0" width="2.76" height="44.62"/>
				</g>
			</g>
		</g>
		<g>
			<g>
				<g>
					
						<rect x="76.8" y="328.03" transform="matrix(0.0966 -0.9953 0.9953 0.0966 -278.0741 394.3083)" class="st0" width="2.76" height="44.62"/>
				</g>
			</g>
		</g>
		<g>
			<g>
				<g>
					
						<rect x="74.79" y="348.68" transform="matrix(0.0966 -0.9953 0.9953 0.0966 -300.4366 410.9706)" class="st0" width="2.76" height="44.62"/>
				</g>
			</g>
		</g>
	</g>
	<g>
		<g>
			<g>
				<g>
					
						<rect x="72.79" y="369.33" transform="matrix(0.0966 -0.9953 0.9953 0.0966 -322.7998 427.6279)" class="st0" width="2.76" height="44.62"/>
				</g>
			</g>
		</g>
		<g>
			<g>
				<g>
					
						<rect x="70.79" y="389.98" transform="matrix(0.0967 -0.9953 0.9953 0.0967 -345.1663 444.245)" class="st0" width="2.76" height="44.62"/>
				</g>
			</g>
		</g>
		<g>
			<g>
				<g>
					
						<rect x="68.78" y="410.63" transform="matrix(0.0966 -0.9953 0.9953 0.0966 -367.5282 460.9254)" class="st0" width="2.76" height="44.62"/>
				</g>
			</g>
		</g>
		<g>
			<g>
				<g>
					
						<rect x="66.78" y="431.27" transform="matrix(0.0966 -0.9953 0.9953 0.0966 -389.8903 477.5843)" class="st0" width="2.76" height="44.62"/>
				</g>
			</g>
		</g>
	</g>
	<g>
		<g>
			<g>
				<path class="st21" d="M151.99,166.49c0,0-0.57,0.7-0.97,0.89c0,0-0.75,0.28-1.27,0.52c-0.16,0.07-0.31,0.14-0.39,0.2
					c-0.36,0.22-1.1,0.83-2.13,1.12c-1.03,0.3-5.67,1.35-5.67,1.35l-1.08-2.76l-0.77-2.23c0,0,4.3-5.57,5.22-5.95
					c0.09-0.04,0.18-0.07,0.27-0.1c0.82-0.25,1.53-0.1,1.97-0.18c0.16-0.03,1.8-0.21,2.15,0.13c0.49,0.47,0.64,1,0.56,1.46
					c0,0,0.92,0.97,0.99,1.87c0,0,0.88,0.87,0.65,2.01C151.51,164.83,152.31,165.82,151.99,166.49z"/>
			</g>
		</g>
	</g>
	<g>
		<g>
			<g>
				<path class="st10" d="M102.22,202.62c1.07-0.69,2.46-1.63,7.26-4.03c8.94-4.47,19.98-12.58,22.08-13.76
					c3.23-1.8,13.42-14.26,13.42-14.26c-0.53-1.88-5.36-5.64-5.36-5.64s-15.46,14.64-18.84,16.44c-2.91,1.55-17.25,3.12-21.21,3.52
					c-0.64,0.07-1.01,0.1-1.01,0.1C94.45,190.63,99.91,204.1,102.22,202.62z"/>
			</g>
		</g>
	</g>
	<g>
		<g>
			<g>
				<path class="st19" d="M100.64,235.07c0,0,4.37,16.24,5.53,22.05c1.01,5.06,3.03,18.53,3.31,21.74
					c0.29,3.2-12.91,34.21-14.29,39.81l-12.03-1.93c0,0,12.69-32.27,9.38-39.44c-4.92-10.67-5.56-10.34-9.44-19.13
					c-3.88-8.79-12.75-8.99-15.14-25.3C67.97,232.87,97.41,229.9,100.64,235.07z"/>
			</g>
		</g>
	</g>
	<g>
		<g>
			<g>
				<path class="st21" d="M79.26,156.15c0,0,7.99-2.98,11.67,3.1c3.68,6.08,3.33,18.25-0.7,19.74c-4.03,1.5-10.07,0.71-12.13-3.09
					c-2.06-3.8-3.92-9.3-3.83-12.98C74.35,159.25,77.16,157.22,79.26,156.15z"/>
			</g>
		</g>
	</g>
	<g>
		<g>
			<g>
				<path class="st21" d="M88.89,178.62c0,0-0.32,2.09,0.21,3.12c0.53,1.03-10.04,1.06-10.04,1.06s-0.86-5.61-2.49-10.35
					C74.94,167.72,88.89,178.62,88.89,178.62z"/>
			</g>
		</g>
	</g>
	<g>
		<g>
			<g>
				<path class="st26" d="M76.57,172.46c0,0,0.73,1.2,3.71,0.74c2.98-0.47,6.62-4.43,7.86-4.87c1.24-0.44,1.26-1.17,1.26-1.17
					l0.78,1.14l1.32,0.08c0,0-1.21-3.55,0.61-4.99c1.82-1.45-1.89-11.48-11.44-8.14c0,0-7.34,2.02-7.07,6.2
					C73.85,165.62,74.92,170.38,76.57,172.46z"/>
			</g>
		</g>
	</g>
	<g>
		<g>
			<g>
				<path class="st21" d="M89.19,165.64c-0.17-0.7-1.95-2.7-2.63-0.56c-0.68,2.14,1.03,5.02,1.99,4.78
					C89.5,169.61,89.62,167.42,89.19,165.64z"/>
			</g>
		</g>
	</g>
	<g>
		<g>
			<path class="st10" d="M58.74,209.15c0.08,0.94,1.54,3.26,4.39,3.36c0,0,8.3,0.28,8.3,0.28c0,0,6.17-19.94-5.4-27.54
				C65.67,185.28,57.93,199.54,58.74,209.15z"/>
		</g>
	</g>
	<g>
		<g>
			<path class="st27" d="M67.14,211.42l0.27-0.04c-0.98-6.67-0.38-12.29-0.38-12.34L66.76,199
				C66.75,199.06,66.16,204.71,67.14,211.42z"/>
		</g>
	</g>
	<g>
		<g>
			<g>
				<path class="st19" d="M83.76,327.95c0.7,1.35,4.52,1.09,12.28,2.13c2.12,0.28,3.79,0.39,5.1,0.38l0.45-4.67
					c-2.27-0.79-4.9-1.6-5.91-2.3c-1.76-1.22-3.45-3.78-3.45-3.78c-4.6-0.04-6.26-0.94-6.26-0.94S83.07,326.6,83.76,327.95z"/>
			</g>
		</g>
	</g>
	<g>
		<g>
			<path class="st10" d="M88.89,181.14c0,0-6.51-1.51-10.18-0.28l-0.55,0.51c0,0-1.11,2.14,3.08,2.32
				C85.44,183.88,92.04,184.19,88.89,181.14z"/>
		</g>
	</g>
	<g>
		<g>
			<g>
				<path class="st18" d="M63.45,333.72c0,0-0.98,3.83-1.11,4.41c-0.13,0.58-6.14-1.01-6.14-1.01l0.01-4.69
					C56.2,332.43,62.74,333.09,63.45,333.72z"/>
			</g>
		</g>
	</g>
	<g>
		<g>
			<g>
				<path class="st19" d="M67.97,232.87c0,0-2.19,9.04-2.84,18.09c-0.6,8.37-1.69,17.54-2.56,26.29
					c-0.97,9.75-3.73,25.52-3.87,30.74C58.55,313.2,54.16,336,54.16,336l11.23,1.29c0,0,7.3-40.29,9.02-44.41
					c1.72-4.12,10.27-33.48,10.56-36.78C85.26,252.81,67.97,232.87,67.97,232.87z"/>
			</g>
		</g>
	</g>
	<g>
		<g>
			<g>
				<path class="st19" d="M62.45,337.65c0,0,1.68,2.56,3.45,3.78c1.76,1.23,8.56,2.81,9.56,3.99c0.72,0.85,1.71,4.07-9.2,2.6
					c-7.75-1.04-11.58-0.78-12.28-2.13c-0.7-1.35,2.21-9.18,2.21-9.18S57.85,337.6,62.45,337.65z"/>
			</g>
		</g>
	</g>
	<g>
		<g>
			<path class="st10" d="M102.91,255.36c0.96-0.14-2.38-28.65-2.12-30.44c0.17-1.19,0.14-10.46,0.07-16.24l1.04-5.85
				c0.58-0.42,1.36-0.91,2.29-1.45c1.45-0.84,3.26-1.79,5.28-2.8c-0.23-1.38-0.4-2.47-0.46-3.1c-0.6-6.09-4.65-8.62-9.44-10.59
				c-4.71-1.94-10.69-3.76-10.69-3.76h-9.61c0,0-7.32,1.46-11.68,3.25c-0.56,0.23-1.08,0.52-1.57,0.86l1.31,27.4
				c0,0.01,0,0.01,0,0.02c0,0.01,0,0.02,0,0.04c0.59,3.86,1.21,8.4,1.41,11.59c0.08,1.3-1.4,8.29-2.18,14.71l-2.72,15.35
				C63.85,254.36,65.43,260.72,102.91,255.36z"/>
		</g>
	</g>
	<g>
		<polygon class="st0" points="178.37,217.28 177.48,215.81 213.41,194.12 242.19,207.2 278.15,180.56 302.99,187.42 328.44,164.64 
			329.58,165.92 303.44,189.33 278.5,182.44 242.4,209.19 213.52,196.06 		"/>
	</g>
	<g>
		<path class="st5" d="M246.88,208.19c0,2.53-2.05,4.59-4.59,4.59c-2.53,0-4.59-2.05-4.59-4.59c0-2.53,2.05-4.59,4.59-4.59
			C244.82,203.61,246.88,205.66,246.88,208.19z"/>
		<path class="st0" d="M242.29,213.64c-3,0-5.45-2.44-5.45-5.45c0-3,2.44-5.45,5.45-5.45c3,0,5.45,2.44,5.45,5.45
			C247.74,211.2,245.29,213.64,242.29,213.64z M242.29,204.47c-2.05,0-3.73,1.67-3.73,3.73c0,2.05,1.67,3.73,3.73,3.73
			c2.05,0,3.73-1.67,3.73-3.73C246.02,206.14,244.35,204.47,242.29,204.47z"/>
	</g>
	<g>
		<path class="st5" d="M282.84,181.78c0,2.53-2.05,4.59-4.59,4.59c-2.53,0-4.58-2.05-4.58-4.59c0-2.53,2.05-4.59,4.58-4.59
			C280.79,177.19,282.84,179.25,282.84,181.78z"/>
		<path class="st0" d="M278.25,187.22c-3,0-5.44-2.44-5.44-5.45c0-3,2.44-5.45,5.44-5.45c3,0,5.45,2.44,5.45,5.45
			C283.7,184.78,281.26,187.22,278.25,187.22z M278.25,178.05c-2.05,0-3.73,1.67-3.73,3.73c0,2.05,1.67,3.73,3.73,3.73
			c2.06,0,3.73-1.67,3.73-3.73C281.98,179.72,280.31,178.05,278.25,178.05z"/>
	</g>
	<g>
		<path class="st5" d="M307.59,188.18c0,2.53-2.05,4.59-4.58,4.59c-2.53,0-4.59-2.05-4.59-4.59c0-2.53,2.05-4.59,4.59-4.59
			C305.54,183.6,307.59,185.65,307.59,188.18z"/>
		<path class="st0" d="M303.01,193.63c-3,0-5.45-2.44-5.45-5.45c0-3,2.44-5.45,5.45-5.45s5.45,2.44,5.45,5.45
			C308.45,191.19,306.01,193.63,303.01,193.63z M303.01,184.46c-2.05,0-3.73,1.67-3.73,3.73s1.67,3.73,3.73,3.73
			s3.73-1.67,3.73-3.73S305.06,184.46,303.01,184.46z"/>
	</g>
	<g>
		<path class="st5" d="M217.94,195.5c0,2.53-2.05,4.59-4.59,4.59s-4.59-2.05-4.59-4.59c0-2.53,2.05-4.59,4.59-4.59
			S217.94,192.97,217.94,195.5z"/>
		<path class="st0" d="M213.35,200.95c-3,0-5.45-2.44-5.45-5.45c0-3,2.44-5.45,5.45-5.45s5.45,2.44,5.45,5.45
			C218.8,198.5,216.35,200.95,213.35,200.95z M213.35,191.77c-2.05,0-3.73,1.67-3.73,3.73c0,2.05,1.67,3.73,3.73,3.73
			s3.73-1.67,3.73-3.73C217.08,193.45,215.41,191.77,213.35,191.77z"/>
	</g>
	<g>
		<path class="st4" d="M150.73,263.83h-16.55c-3.62,0-6.57-2.95-6.57-6.57V240.7c0-3.62,2.95-6.57,6.57-6.57h16.55
			c3.62,0,6.57,2.95,6.57,6.57v16.55C157.31,260.88,154.36,263.83,150.73,263.83z M134.18,235.36c-2.95,0-5.34,2.4-5.34,5.34v16.55
			c0,2.95,2.4,5.34,5.34,5.34h16.55c2.95,0,5.34-2.4,5.34-5.34V240.7c0-2.95-2.4-5.34-5.34-5.34H134.18z"/>
	</g>
	<g>
		<path class="st4" d="M150.73,303.23h-16.55c-3.62,0-6.57-2.95-6.57-6.57v-16.55c0-3.62,2.95-6.57,6.57-6.57h16.55
			c3.62,0,6.57,2.95,6.57,6.57v16.55C157.31,300.29,154.36,303.23,150.73,303.23z M134.18,274.77c-2.95,0-5.34,2.4-5.34,5.34v16.55
			c0,2.95,2.4,5.34,5.34,5.34h16.55c2.95,0,5.34-2.4,5.34-5.34v-16.55c0-2.95-2.4-5.34-5.34-5.34H134.18z"/>
	</g>
	<g>
		<path class="st4" d="M150.73,342.03h-16.55c-3.29,0-5.96-2.67-5.96-5.96v-16.55c0-3.29,2.67-5.96,5.96-5.96h16.55
			c3.29,0,5.96,2.67,5.96,5.96v16.55C156.69,339.37,154.02,342.03,150.73,342.03z"/>
	</g>
	<g>
		<g>
			<g>
				<path class="st5" d="M141.56,334.07l-7.2-6.27c-0.59-0.51-0.65-1.41-0.14-2c0.51-0.59,1.41-0.65,2-0.14l5.09,4.44l7.26-8.1
					c0.52-0.58,1.42-0.63,2-0.11c0.58,0.52,0.63,1.42,0.11,2L141.56,334.07z"/>
			</g>
		</g>
	</g>
	<g>
		<path class="st28" d="M384.14,282.19l-0.04-1.47c0.02,0,2.11-0.06,5.62-0.48l0.17,1.46C386.31,282.13,384.22,282.19,384.14,282.19
			z M395.53,280.9l-0.24-1.45c1.83-0.31,3.69-0.66,5.54-1.05l0.31,1.44C399.27,280.23,397.39,280.59,395.53,280.9z M406.68,278.52
			l-0.37-1.43c1.81-0.47,3.64-0.99,5.42-1.53l0.43,1.41C410.36,277.53,408.51,278.05,406.68,278.52z M417.56,275.18l-0.49-1.39
			c1.77-0.63,3.54-1.31,5.25-2.01l0.56,1.37C421.14,273.86,419.35,274.55,417.56,275.18z M428.09,270.86l-0.62-1.33
			c1.7-0.79,3.39-1.64,5.03-2.51l0.69,1.3C431.53,269.21,429.81,270.06,428.09,270.86z M438.14,265.53l-0.76-1.26
			c1.61-0.96,3.2-1.98,4.73-3.01l0.83,1.22C441.39,263.53,439.77,264.56,438.14,265.53z M447.57,259.16l-0.89-1.17
			c1.49-1.13,2.95-2.32,4.36-3.53l0.96,1.12C450.56,256.8,449.08,258,447.57,259.16z M456.19,251.74l-1.03-1.06
			c1.34-1.3,2.65-2.65,3.9-4.02l1.09,0.99C458.88,249.05,457.55,250.42,456.19,251.74z M463.85,243.33l-1.15-0.92
			c1.16-1.45,2.3-2.95,3.37-4.47l1.2,0.85C466.19,240.34,465.04,241.86,463.85,243.33z M470.42,234.05l-1.25-0.78
			c0.97-1.57,1.92-3.2,2.8-4.85l1.3,0.7C472.37,230.8,471.41,232.45,470.42,234.05z M475.81,224.05l-1.34-0.62
			c0.78-1.67,1.52-3.4,2.22-5.14l1.37,0.54C477.36,220.59,476.6,222.35,475.81,224.05z M480.01,213.5l-1.4-0.47
			c0.59-1.75,1.14-3.55,1.65-5.35l1.42,0.4C481.17,209.9,480.61,211.73,480.01,213.5z M483.08,202.57l-1.44-0.33
			c0.41-1.8,0.78-3.65,1.12-5.49l1.45,0.26C483.87,198.88,483.49,200.75,483.08,202.57z M485.09,191.4l-1.46-0.2
			c0.25-1.82,0.46-3.7,0.64-5.58l1.47,0.14C485.56,187.66,485.34,189.56,485.09,191.4z M486.16,180.11l-1.47-0.08
			c0.1-1.84,0.17-3.73,0.21-5.62l1.47,0.03C486.33,176.34,486.26,178.25,486.16,180.11z M484.91,168.79
			c-0.02-1.85-0.08-3.74-0.16-5.62l1.47-0.07c0.08,1.9,0.14,3.81,0.17,5.67L484.91,168.79z M484.42,157.54
			c-0.14-1.88-0.31-3.76-0.51-5.6l1.47-0.16c0.2,1.86,0.37,3.76,0.52,5.65L484.42,157.54z M18.78,155.03
			c-0.88-1.1-1.73-2.24-2.54-3.37l1.2-0.86c0.79,1.11,1.63,2.22,2.49,3.31L18.78,155.03z M13.11,146.91
			c-0.99-1.63-1.93-3.31-2.78-4.98l1.31-0.67c0.83,1.64,1.75,3.28,2.72,4.88L13.11,146.91z M483.21,146.37
			c-0.27-1.86-0.57-3.73-0.9-5.55l1.45-0.26c0.33,1.84,0.64,3.72,0.9,5.6L483.21,146.37z M7.94,136.74
			c-0.73-1.77-1.38-3.57-1.95-5.37l1.41-0.44c0.55,1.76,1.19,3.52,1.9,5.25L7.94,136.74z M481.21,135.31
			c-0.4-1.83-0.84-3.67-1.31-5.46l1.43-0.37c0.47,1.81,0.92,3.67,1.32,5.52L481.21,135.31z M4.52,125.85
			c-0.41-1.87-0.74-3.76-0.98-5.63l1.46-0.18c0.23,1.83,0.55,3.68,0.95,5.5L4.52,125.85z M478.38,124.45
			c-0.55-1.79-1.13-3.59-1.75-5.33l1.39-0.49c0.62,1.77,1.22,3.58,1.77,5.39L478.38,124.45z M3.1,114.52
			c-0.02-0.59-0.03-1.19-0.03-1.77c0-1.31,0.05-2.64,0.13-3.94l1.47,0.1c-0.09,1.27-0.13,2.56-0.13,3.84c0,0.57,0.01,1.15,0.03,1.73
			L3.1,114.52z M474.64,113.86c-0.7-1.74-1.44-3.47-2.21-5.16l1.34-0.61c0.78,1.71,1.53,3.46,2.24,5.22L474.64,113.86z
			 M469.98,103.66c-0.85-1.66-1.76-3.32-2.68-4.93l1.28-0.74c0.94,1.63,1.85,3.31,2.72,4.99L469.98,103.66z M5.34,103.37l-1.45-0.25
			c0.32-1.88,0.75-3.76,1.26-5.58l1.42,0.4C6.06,99.71,5.65,101.54,5.34,103.37z M464.39,93.94c-1.01-1.57-2.07-3.13-3.15-4.65
			l1.2-0.86c1.09,1.53,2.16,3.12,3.18,4.7L464.39,93.94z M8.35,92.67l-1.37-0.55c0.71-1.77,1.52-3.52,2.41-5.19l1.3,0.69
			C9.83,89.25,9.04,90.94,8.35,92.67z M457.87,84.81c-1.15-1.46-2.36-2.91-3.58-4.32l1.11-0.97c1.24,1.42,2.46,2.89,3.63,4.37
			L457.87,84.81z M186.21,83.6c-1.17,0-2.37-0.01-3.56-0.04l0.03-1.47c1.89,0.04,3.78,0.05,5.62,0.03l0.02,1.47
			C187.62,83.6,186.91,83.6,186.21,83.6z M193.99,83.41l-0.07-1.47c1.87-0.09,3.76-0.22,5.61-0.39l0.13,1.47
			C197.78,83.19,195.88,83.32,193.99,83.41z M176.97,83.34c-1.86-0.1-3.77-0.24-5.66-0.41l0.13-1.47c1.87,0.16,3.76,0.3,5.61,0.4
			L176.97,83.34z M13.58,82.86l-1.22-0.83c1.07-1.57,2.24-3.1,3.48-4.55l1.12,0.96C15.76,79.84,14.62,81.33,13.58,82.86z
			 M205.29,82.42l-0.19-1.46c1.85-0.23,3.72-0.51,5.56-0.81l0.24,1.45C209.05,81.91,207.16,82.18,205.29,82.42z M165.67,82.35
			c-1.85-0.22-3.74-0.47-5.62-0.75l0.22-1.46c1.86,0.28,3.74,0.53,5.58,0.74L165.67,82.35z M154.45,80.7
			c-1.84-0.32-3.71-0.68-5.57-1.05l0.29-1.44c1.85,0.37,3.71,0.72,5.53,1.04L154.45,80.7z M216.49,80.56l-0.3-1.44
			c1.82-0.38,3.66-0.79,5.48-1.24l0.35,1.43C220.19,79.76,218.32,80.18,216.49,80.56z M143.34,78.46c-1.81-0.41-3.66-0.85-5.51-1.32
			l0.36-1.43c1.84,0.46,3.68,0.9,5.48,1.31L143.34,78.46z M227.5,77.84l-0.41-1.42c1.78-0.51,3.58-1.06,5.38-1.65l0.46,1.4
			C231.12,76.77,229.3,77.33,227.5,77.84z M450.5,76.35c-1.29-1.34-2.63-2.67-3.99-3.95l1.01-1.07c1.37,1.3,2.73,2.64,4.04,4
			L450.5,76.35z M132.35,75.71c-1.79-0.49-3.63-1.01-5.45-1.55l0.42-1.41c1.81,0.53,3.64,1.05,5.42,1.54L132.35,75.71z M20.81,74.41
			l-1.01-1.07c1.38-1.3,2.85-2.54,4.37-3.69l0.89,1.17C23.58,71.94,22.15,73.15,20.81,74.41z M238.29,74.33l-0.5-1.39
			c1.72-0.63,3.49-1.3,5.26-2l0.55,1.37C241.82,73.02,240.03,73.7,238.29,74.33z M121.48,72.51c-1.77-0.56-3.58-1.15-5.39-1.75
			l0.47-1.4c1.79,0.6,3.6,1.19,5.36,1.74L121.48,72.51z M248.83,70.14l-0.58-1.35c1.67-0.72,3.4-1.49,5.15-2.29l0.61,1.34
			C252.25,68.65,250.51,69.42,248.83,70.14z M110.74,68.92c-1.76-0.62-3.55-1.27-5.32-1.93l0.51-1.38c1.77,0.66,3.55,1.3,5.3,1.92
			L110.74,68.92z M442.34,68.66c-1.41-1.21-2.87-2.4-4.35-3.55l0.91-1.16c1.49,1.16,2.97,2.37,4.4,3.59L442.34,68.66z M29.67,67.69
			l-0.77-1.26c1.61-0.98,3.3-1.89,5.03-2.72l0.64,1.33C32.89,65.84,31.24,66.74,29.67,67.69z M259.13,65.43l-0.64-1.33
			c1.63-0.78,3.28-1.6,5.05-2.49l0.66,1.32C262.42,63.83,260.76,64.64,259.13,65.43z M100.12,65.08c-1.79-0.61-3.59-1.18-5.35-1.71
			l0.42-1.41c1.79,0.53,3.61,1.11,5.41,1.72L100.12,65.08z M39.71,62.87l-0.51-1.38c1.76-0.65,3.59-1.23,5.44-1.74l0.39,1.42
			C43.21,61.66,41.42,62.23,39.71,62.87z M89.35,61.89c-1.83-0.46-3.68-0.87-5.48-1.23l0.29-1.45c1.83,0.36,3.69,0.78,5.55,1.25
			L89.35,61.89z M433.48,61.76c-1.51-1.07-3.08-2.13-4.66-3.14l0.8-1.24c1.59,1.02,3.18,2.09,4.71,3.18L433.48,61.76z M269.24,60.36
			l-0.68-1.31c1.5-0.77,3.09-1.6,5-2.61l0.68,1.31C272.33,58.76,270.74,59.59,269.24,60.36z M50.47,59.93l-0.27-1.45
			c1.84-0.34,3.74-0.62,5.64-0.82L56,59.12C54.13,59.32,52.27,59.59,50.47,59.93z M78.34,59.71c-1.87-0.27-3.74-0.5-5.57-0.66
			l0.13-1.47c1.85,0.17,3.76,0.39,5.65,0.67L78.34,59.71z M61.58,58.73l-0.05-1.47c1.86-0.07,3.78-0.07,5.7-0.02l-0.04,1.47
			C65.29,58.65,63.41,58.66,61.58,58.73z M424.02,55.68c-1.61-0.94-3.26-1.85-4.93-2.73l0.69-1.3c1.68,0.88,3.36,1.81,4.98,2.76
			L424.02,55.68z M279.25,55.12l-0.69-1.3c1.67-0.88,3.33-1.76,5-2.63l0.68,1.31C282.58,53.37,280.92,54.25,279.25,55.12z
			 M414.05,50.43c-1.68-0.8-3.41-1.58-5.14-2.31l0.58-1.36c1.75,0.74,3.49,1.53,5.19,2.34L414.05,50.43z M289.26,49.9l-0.67-1.31
			c1.8-0.92,3.45-1.76,5.05-2.55l0.66,1.32C292.7,48.15,291.05,48.98,289.26,49.9z M403.7,46.01c-1.74-0.66-3.52-1.3-5.29-1.9
			l0.47-1.4c1.79,0.61,3.59,1.25,5.35,1.92L403.7,46.01z M299.37,44.9l-0.63-1.33c1.66-0.78,3.43-1.52,5.26-2.22l0.52,1.38
			C302.72,43.41,300.99,44.14,299.37,44.9z M393.05,42.41c-1.78-0.53-3.61-1.04-5.42-1.5l0.37-1.43c1.83,0.47,3.67,0.98,5.47,1.52
			L393.05,42.41z M309.82,40.92l-0.43-1.41c1.77-0.54,3.61-1.05,5.49-1.51l0.35,1.43C313.38,39.89,311.56,40.39,309.82,40.92z
			 M382.16,39.59c-1.82-0.4-3.68-0.78-5.52-1.12l0.27-1.45c1.86,0.34,3.73,0.72,5.57,1.13L382.16,39.59z M320.71,38.24l-0.28-1.45
			c1.82-0.35,3.71-0.67,5.6-0.95l0.22,1.46C324.38,37.57,322.52,37.89,320.71,38.24z M371.09,37.56c-1.84-0.27-3.72-0.52-5.58-0.73
			l0.17-1.46c1.87,0.21,3.77,0.46,5.63,0.74L371.09,37.56z M331.83,36.59l-0.15-1.47c1.86-0.2,3.76-0.36,5.66-0.48l0.1,1.47
			C335.55,36.24,333.67,36.4,331.83,36.59z M359.91,36.29c-1.87-0.15-3.76-0.26-5.62-0.34l0.06-1.47c1.88,0.08,3.79,0.2,5.67,0.35
			L359.91,36.29z M343.05,35.86l-0.04-1.47c1.46-0.04,2.94-0.06,4.41-0.06c0.42,0,0.84,0,1.27,0l-0.01,1.47c-0.43,0-0.86,0-1.3-0.01
			C345.93,35.79,344.47,35.81,343.05,35.86z"/>
	</g>
	<path class="st29" d="M373.44,355.39c-0.08-0.38-1.3-6.12-1.57-7.57c-0.01-0.05-0.02-0.09-0.02-0.13c0-0.02-0.01-0.04-0.01-0.05v0
		l0.8-1.65L373.44,355.39z"/>
</g>
</svg>
