<?xml version="1.0" encoding="UTF-8"?>
<!DOCTYPE svg PUBLIC "-//W3C//DTD SVG 1.1//EN" "http://www.w3.org/Graphics/SVG/1.1/DTD/svg11.dtd">
<!-- Creator: CorelDRAW X7 -->
<svg xmlns="http://www.w3.org/2000/svg" xml:space="preserve" width="5.30083in" height="2.51553in" version="1.1" style="shape-rendering:geometricPrecision; text-rendering:geometricPrecision; image-rendering:optimizeQuality; fill-rule:evenodd; clip-rule:evenodd"
viewBox="0 0 6844 3248"
 xmlns:xlink="http://www.w3.org/1999/xlink">
 <defs>
  <style type="text/css">
   <![CDATA[
    .fil1 {fill:none}
    .fil3 {fill:#028075}
    .fil0 {fill:#109F99}
    .fil2 {fill:#3DB3AD}
    .fil5 {fill:#D98200}
    .fil6 {fill:#DA8200}
    .fil7 {fill:#DA8300}
    .fil8 {fill:#DB8300}
    .fil9 {fill:#DC8400}
    .fil10 {fill:#DD8400}
    .fil11 {fill:#DD8500}
    .fil12 {fill:#DE8500}
    .fil13 {fill:#F19200}
    .fil14 {fill:url(#id1)}
    .fil4 {fill:url(#id2)}
   ]]>
  </style>
   <clipPath id="id0">
    <path d="M3184 2678c0,-139 -92,-216 -194,-216 -142,0 -235,120 -235,319 0,185 111,295 235,295 131,0 175,-56 175,-124l0 -46 -6 0c-38,43 -89,55 -144,55 -71,0 -122,-45 -131,-134l84 -2c156,-2 216,-36 216,-147zm3660 201c0,-86 -55,-135 -154,-162 -76,-21 -89,-35 -89,-69 0,-40 24,-70 91,-70 59,0 108,28 133,58l6 0 0 -49c0,-64 -46,-125 -152,-125 -135,0 -206,91 -206,198 0,85 49,132 149,158 75,19 93,36 93,73 0,43 -25,68 -79,68 -61,0 -116,-25 -145,-57l-5 0 0 54c0,69 63,120 155,120 130,0 203,-74 203,-197zm-413 -270l0 -50c0,-54 -27,-88 -101,-88 -126,0 -181,96 -181,230l0 272c0,55 37,90 97,90l34 0 0 -349c0,-90 26,-125 79,-125 21,0 49,8 67,20l5 0zm-375 69c0,-139 -93,-216 -195,-216 -142,0 -235,120 -235,319 0,185 111,295 235,295 132,0 175,-56 175,-124l0 -46 -5 0c-38,43 -90,55 -145,55 -71,0 -122,-45 -131,-134l84 -2c156,-2 217,-36 217,-147zm-122 -9c0,43 -21,55 -126,57l-54 1c0,-59 18,-154 96,-154 52,0 84,35 84,96zm-385 83c0,-173 -88,-290 -223,-290 -152,0 -237,93 -237,311l0 367c0,70 40,108 98,108l32 0 0 -251c21,49 68,79 123,79 112,0 207,-84 207,-324zm-131 31c0,116 -33,174 -88,174 -70,0 -112,-55 -112,-210 0,-110 37,-168 90,-168 71,0 110,53 110,204zm-425 -24c0,-167 -80,-297 -226,-297 -160,0 -238,130 -238,318 0,160 80,296 227,296 158,0 237,-135 237,-317zm-130 23c0,113 -34,175 -97,175 -75,0 -107,-68 -107,-198 0,-114 35,-180 97,-180 72,0 107,60 107,203zm-377 214l0 -33 -29 0c-58,0 -81,-18 -81,-77l0 -521c0,-54 -36,-86 -92,-86l-36 0 0 620c0,118 55,173 156,173 52,0 82,-25 82,-76zm-337 -318c0,-139 -93,-216 -195,-216 -141,0 -235,120 -235,319 0,185 111,295 235,295 132,0 175,-56 175,-124l0 -46 -5 0c-38,43 -89,55 -145,55 -71,0 -122,-45 -131,-134l84 -2c156,-2 217,-36 217,-147zm-122 -9c0,43 -21,55 -126,57l-54 1c0,-59 18,-154 96,-154 52,0 84,35 84,96zm-353 -134c0,-34 -17,-60 -54,-60l-61 0c-19,147 -60,301 -101,407 -44,-110 -71,-233 -87,-338 -5,-32 -29,-69 -72,-69l-69 0c24,199 88,412 169,556 18,33 39,39 60,39l37 0c54,-102 96,-211 135,-343 17,-58 43,-162 43,-192zm-611 134c0,43 -21,55 -127,57l-53 1c0,-59 17,-154 96,-154 52,0 84,35 84,96z"/>
   </clipPath>
  <linearGradient id="id1" gradientUnits="userSpaceOnUse" x1="4855.76" y1="2420.02" x2="4734.46" y2="2724.84">
   <stop offset="0" style="stop-opacity:1; stop-color:#F19200"/>
   <stop offset="1" style="stop-opacity:1; stop-color:#FCA729"/>
  </linearGradient>
  <linearGradient id="id2" gradientUnits="userSpaceOnUse" x1="2611.76" y1="2464.32" x2="3372.33" y2="827.96">
   <stop offset="0" style="stop-opacity:1; stop-color:#3DB3AD"/>
   <stop offset="1" style="stop-opacity:1; stop-color:#028075"/>
  </linearGradient>
 </defs>
 <g id="Layer_x0020_1">
  <metadata id="CorelCorpID_0Corel-Layer"/>
  <path class="fil0" d="M0 1489c143,-379 459,-667 850,-774 391,-107 810,-21 1126,232 -151,180 -343,288 -575,323 -686,-267 -1152,-194 -1401,219z"/>
  <path class="fil0" d="M525 563c-90,80 -144,194 -149,315 198,-162 442,-258 698,-274 -83,-90 -193,-129 -312,-129 -3,-25 -9,-51 -18,-77 -41,-112 -132,-182 -202,-156 -70,25 -94,137 -53,249 10,27 22,51 36,72z"/>
  <path class="fil1" d="M0 1489c337,-521 1027,-681 1559,-360"/>
  <path class="fil1" d="M1401 1270c88,-122 279,-229 575,-323"/>
  <path class="fil1" d="M1074 604c-176,-65 -366,-79 -549,-41"/>
  <path class="fil2" d="M1559 1129c-468,-283 -1059,-193 -1424,189 267,-257 689,-273 1266,-48 35,-49 88,-97 158,-141z"/>
  <path class="fil3" d="M1559 1129c-70,44 -123,92 -158,141 232,-35 424,-143 575,-323 -176,56 -315,116 -417,182z"/>
  <path class="fil2" d="M376 878c198,-162 442,-258 698,-274 -176,-65 -366,-79 -549,-41 -90,80 -144,194 -149,315z"/>
  <path class="fil0" d="M1665 3035c-468,145 -982,83 -1372,-227 -280,-223 -375,-636 -212,-955 23,-46 47,-82 78,-123 222,-291 670,-425 951,-144 65,65 102,133 133,219 74,222 4,435 -167,591 119,-228 108,-458 -79,-647 -178,-179 -505,-205 -688,-27 -259,261 -283,608 -26,880 279,295 686,171 990,-9 396,-245 592,-628 805,-1024 387,-721 689,-1342 1564,-1531 448,-92 901,-15 1298,210 -764,-82 -1380,278 -1718,962 -335,677 -790,1572 -1557,1825z"/>
  <path class="fil4" d="M1665 3035c767,-253 1222,-1148 1557,-1825 338,-684 954,-1044 1718,-962 -984,-258 -1773,245 -2367,1509 -456,861 -965,1310 -1529,1347 206,18 418,-6 621,-69z"/>
  <path class="fil2" d="M580 1603c198,-20 390,74 495,242 105,168 106,382 1,551 67,-354 -149,-699 -496,-793z"/>
  <path class="fil5" d="M3138 2678c0,-139 -93,-216 -195,-216 -142,0 -235,120 -235,319 0,185 111,295 235,295 131,0 175,-56 175,-124 0,-16 0,-31 0,-46 -2,0 -4,0 -6,0 -38,43 -89,55 -144,55 -71,0 -122,-45 -131,-134 28,-1 56,-1 84,-2 156,-2 217,-36 217,-147zm-122 -9c0,43 -21,55 -127,57 -17,1 -35,1 -53,1 0,-59 17,-154 96,-154 52,0 84,35 84,96zm611 -134c0,-34 -17,-60 -54,-60 -20,0 -41,0 -61,0 -19,147 -60,301 -101,407 -44,-110 -71,-233 -87,-338 -5,-32 -29,-69 -72,-69 -23,0 -46,0 -69,0 24,199 88,412 169,556 18,33 39,39 60,39 12,0 24,0 37,0 54,-102 96,-211 135,-343 17,-58 43,-162 43,-192zm475 143c0,-139 -93,-216 -195,-216 -141,0 -235,120 -235,319 0,185 111,295 235,295 132,0 175,-56 175,-124 0,-16 0,-31 0,-46 -2,0 -3,0 -5,0 -38,43 -89,55 -145,55 -71,0 -122,-45 -131,-134 28,-1 56,-1 84,-2 156,-2 217,-36 217,-147zm-122 -9c0,43 -21,55 -126,57 -18,1 -36,1 -54,1 0,-59 18,-154 96,-154 52,0 84,35 84,96zm459 327c0,-11 0,-22 0,-33 -10,0 -19,0 -29,0 -58,0 -81,-18 -81,-77 0,-173 0,-347 0,-521 0,-54 -36,-86 -92,-86 -12,0 -24,0 -36,0 0,207 0,414 0,620 0,118 55,173 156,173 52,0 82,-25 82,-76zm507 -237c0,-167 -80,-297 -226,-297 -160,0 -238,130 -238,318 0,160 80,296 227,296 158,0 237,-135 237,-317zm-130 23c0,113 -34,175 -97,175 -75,0 -107,-68 -107,-198 0,-114 35,-180 97,-180 72,0 107,60 107,203zm686 -30c0,-173 -88,-290 -222,-290 -153,0 -238,93 -238,311 0,122 0,245 0,367 0,70 41,108 98,108 11,0 21,0 32,0 0,-84 0,-167 0,-251 22,49 68,79 123,79 112,0 207,-84 207,-324zm-131 31c0,116 -33,174 -88,174 -70,0 -112,-55 -112,-210 0,-110 37,-168 90,-168 71,0 110,53 110,204zm638 -105c0,-139 -93,-216 -195,-216 -142,0 -235,120 -235,319 0,185 111,295 235,295 132,0 175,-56 175,-124 0,-16 0,-31 0,-46 -2,0 -3,0 -5,0 -38,43 -90,55 -145,55 -71,0 -122,-45 -131,-134 28,-1 56,-1 84,-2 156,-2 217,-36 217,-147zm-122 -9c0,43 -21,55 -126,57 -18,1 -36,1 -54,1 0,-59 18,-154 96,-154 52,0 84,35 84,96zm497 -60c0,-17 0,-34 0,-50 0,-54 -27,-88 -101,-88 -126,0 -181,96 -181,230 0,91 0,182 0,272 0,55 37,90 97,90 11,0 23,0 34,0 0,-116 0,-233 0,-349 0,-90 26,-125 79,-125 21,0 49,8 67,20 2,0 3,0 5,0zm413 270c0,-86 -55,-135 -154,-162 -76,-21 -89,-35 -89,-69 0,-40 24,-70 91,-70 59,0 108,28 133,58 2,0 4,0 6,0 0,-16 0,-33 0,-49 0,-64 -46,-125 -152,-125 -135,0 -206,91 -206,198 0,85 49,132 149,158 75,19 93,36 93,73 0,43 -25,68 -79,68 -61,0 -116,-25 -145,-57 -2,0 -4,0 -5,0 0,18 0,36 0,54 0,69 63,120 155,120 130,0 203,-74 203,-197z"/>
  <path class="fil5" d="M3140 2678c0,-139 -93,-216 -195,-216 -141,0 -235,120 -235,319 0,185 111,295 235,295 132,0 175,-56 175,-124 0,-16 0,-31 0,-46 -2,0 -3,0 -5,0 -38,43 -89,55 -145,55 -71,0 -122,-45 -131,-134 28,-1 56,-1 84,-2 156,-2 217,-36 217,-147zm-122 -9c0,43 -21,55 -126,57 -18,1 -36,1 -54,1 0,-59 18,-154 96,-154 52,0 84,35 84,96zm612 -134c0,-34 -18,-60 -55,-60 -20,0 -40,0 -61,0 -18,147 -60,301 -101,407 -43,-110 -71,-233 -87,-338 -4,-32 -28,-69 -72,-69 -23,0 -46,0 -68,0 24,199 88,412 168,556 19,33 39,39 60,39 12,0 25,0 37,0 55,-102 96,-211 135,-343 18,-58 44,-162 44,-192zm474 143c0,-139 -92,-216 -195,-216 -141,0 -235,120 -235,319 0,185 111,295 235,295 132,0 176,-56 176,-124 0,-16 0,-31 0,-46 -2,0 -4,0 -6,0 -38,43 -89,55 -145,55 -70,0 -121,-45 -130,-134 28,-1 56,-1 84,-2 155,-2 216,-36 216,-147zm-122 -9c0,43 -20,55 -126,57 -18,1 -36,1 -53,1 0,-59 17,-154 95,-154 53,0 84,35 84,96zm460 327c0,-11 0,-22 0,-33 -10,0 -20,0 -30,0 -57,0 -80,-18 -80,-77 0,-173 0,-347 0,-521 0,-54 -36,-86 -93,-86 -12,0 -24,0 -36,0 0,207 0,414 0,620 0,118 56,173 156,173 52,0 83,-25 83,-76zm507 -237c0,-167 -81,-297 -227,-297 -160,0 -238,130 -238,318 0,160 81,296 228,296 157,0 237,-135 237,-317zm-131 23c0,113 -34,175 -97,175 -75,0 -106,-68 -106,-198 0,-114 34,-180 97,-180 71,0 106,60 106,203zm686 -30c0,-173 -87,-290 -222,-290 -153,0 -237,93 -237,311 0,122 0,245 0,367 0,70 40,108 98,108 10,0 21,0 31,0 0,-84 0,-167 0,-251 22,49 69,79 123,79 112,0 207,-84 207,-324zm-131 31c0,116 -32,174 -88,174 -70,0 -112,-55 -112,-210 0,-110 37,-168 90,-168 71,0 110,53 110,204zm638 -105c0,-139 -92,-216 -195,-216 -141,0 -235,120 -235,319 0,185 111,295 235,295 132,0 176,-56 176,-124 0,-16 0,-31 0,-46 -2,0 -4,0 -6,0 -38,43 -89,55 -145,55 -70,0 -122,-45 -130,-134 28,-1 56,-1 84,-2 155,-2 216,-36 216,-147zm-122 -9c0,43 -20,55 -126,57 -18,1 -36,1 -53,1 0,-59 17,-154 95,-154 53,0 84,35 84,96zm498 -60c0,-17 0,-34 0,-50 0,-54 -28,-88 -102,-88 -126,0 -180,96 -180,230 0,91 0,182 0,272 0,55 37,90 97,90 11,0 22,0 33,0 0,-116 0,-233 0,-349 0,-90 26,-125 80,-125 20,0 49,8 66,20 2,0 4,0 6,0zm412 270c0,-86 -54,-135 -153,-162 -77,-21 -90,-35 -90,-69 0,-40 24,-70 92,-70 59,0 108,28 133,58 1,0 3,0 5,0 0,-16 0,-33 0,-49 0,-64 -46,-125 -151,-125 -135,0 -207,91 -207,198 0,85 49,132 149,158 75,19 94,36 94,73 0,43 -25,68 -80,68 -61,0 -115,-25 -145,-57 -1,0 -3,0 -5,0 0,18 0,36 0,54 0,69 63,120 156,120 129,0 202,-74 202,-197z"/>
  <path class="fil6" d="M3142 2678c0,-139 -92,-216 -195,-216 -141,0 -235,120 -235,319 0,185 111,295 235,295 132,0 176,-56 176,-124 0,-16 0,-31 0,-46 -2,0 -4,0 -6,0 -38,43 -89,55 -145,55 -70,0 -121,-45 -130,-134 28,-1 56,-1 84,-2 155,-2 216,-36 216,-147zm-122 -9c0,43 -20,55 -126,57 -18,1 -35,1 -53,1 0,-59 17,-154 96,-154 52,0 83,35 83,96zm612 -134c0,-34 -17,-60 -54,-60 -21,0 -41,0 -61,0 -19,147 -60,301 -102,407 -43,-110 -70,-233 -87,-338 -4,-32 -28,-69 -72,-69 -22,0 -45,0 -68,0 24,199 88,412 169,556 18,33 39,39 59,39 13,0 25,0 38,0 54,-102 95,-211 134,-343 18,-58 44,-162 44,-192zm475 143c0,-139 -93,-216 -195,-216 -142,0 -235,120 -235,319 0,185 111,295 235,295 131,0 175,-56 175,-124 0,-16 0,-31 0,-46 -2,0 -4,0 -5,0 -39,43 -90,55 -145,55 -71,0 -122,-45 -131,-134 28,-1 56,-1 84,-2 156,-2 217,-36 217,-147zm-122 -9c0,43 -21,55 -127,57 -17,1 -35,1 -53,1 0,-59 17,-154 96,-154 52,0 84,35 84,96zm459 327c0,-11 0,-22 0,-33 -10,0 -20,0 -29,0 -58,0 -81,-18 -81,-77 0,-173 0,-347 0,-521 0,-54 -36,-86 -92,-86 -12,0 -24,0 -36,0 0,207 0,414 0,620 0,118 55,173 155,173 52,0 83,-25 83,-76zm507 -237c0,-167 -80,-297 -226,-297 -160,0 -239,130 -239,318 0,160 81,296 228,296 158,0 237,-135 237,-317zm-130 23c0,113 -34,175 -97,175 -75,0 -107,-68 -107,-198 0,-114 35,-180 97,-180 72,0 107,60 107,203zm685 -30c0,-173 -87,-290 -222,-290 -152,0 -237,93 -237,311 0,122 0,245 0,367 0,70 40,108 98,108 10,0 21,0 31,0 0,-84 0,-167 0,-251 22,49 69,79 123,79 113,0 207,-84 207,-324zm-130 31c0,116 -33,174 -89,174 -69,0 -112,-55 -112,-210 0,-110 37,-168 91,-168 70,0 110,53 110,204zm637 -105c0,-139 -92,-216 -194,-216 -142,0 -235,120 -235,319 0,185 111,295 235,295 131,0 175,-56 175,-124 0,-16 0,-31 0,-46 -2,0 -4,0 -6,0 -38,43 -89,55 -144,55 -71,0 -122,-45 -131,-134 28,-1 56,-1 84,-2 155,-2 216,-36 216,-147zm-121 -9c0,43 -21,55 -127,57 -17,1 -35,1 -53,1 0,-59 17,-154 96,-154 52,0 84,35 84,96zm497 -60c0,-17 0,-34 0,-50 0,-54 -27,-88 -101,-88 -127,0 -181,96 -181,230 0,91 0,182 0,272 0,55 37,90 97,90 11,0 22,0 34,0 0,-116 0,-233 0,-349 0,-90 26,-125 79,-125 21,0 49,8 67,20 1,0 3,0 5,0zm412 270c0,-86 -54,-135 -153,-162 -76,-21 -89,-35 -89,-69 0,-40 24,-70 91,-70 59,0 108,28 133,58 2,0 4,0 5,0 0,-16 0,-33 0,-49 0,-64 -45,-125 -151,-125 -135,0 -207,91 -207,198 0,85 49,132 149,158 76,19 94,36 94,73 0,43 -25,68 -79,68 -61,0 -116,-25 -145,-57 -2,0 -4,0 -6,0 0,18 0,36 0,54 0,69 63,120 156,120 130,0 202,-74 202,-197z"/>
  <path class="fil7" d="M3145 2678c0,-139 -93,-216 -195,-216 -142,0 -235,120 -235,319 0,185 111,295 235,295 131,0 175,-56 175,-124 0,-16 0,-31 0,-46 -2,0 -4,0 -5,0 -39,43 -90,55 -145,55 -71,0 -122,-45 -131,-134 28,-1 56,-1 84,-2 156,-2 217,-36 217,-147zm-122 -9c0,43 -21,55 -127,57 -17,1 -35,1 -53,1 0,-59 17,-154 96,-154 52,0 84,35 84,96zm611 -134c0,-34 -17,-60 -54,-60 -20,0 -41,0 -61,0 -19,147 -60,301 -101,407 -44,-110 -71,-233 -87,-338 -5,-32 -29,-69 -72,-69 -23,0 -46,0 -69,0 24,199 88,412 169,556 18,33 39,39 60,39 12,0 25,0 37,0 54,-102 96,-211 135,-343 17,-58 43,-162 43,-192zm475 143c0,-139 -93,-216 -195,-216 -141,0 -235,120 -235,319 0,185 111,295 235,295 132,0 175,-56 175,-124 0,-16 0,-31 0,-46 -2,0 -3,0 -5,0 -38,43 -89,55 -145,55 -71,0 -122,-45 -131,-134 28,-1 56,-1 84,-2 156,-2 217,-36 217,-147zm-122 -9c0,43 -21,55 -126,57 -18,1 -36,1 -54,1 0,-59 18,-154 96,-154 52,0 84,35 84,96zm459 327c0,-11 0,-22 0,-33 -9,0 -19,0 -29,0 -58,0 -81,-18 -81,-77 0,-173 0,-347 0,-521 0,-54 -36,-86 -92,-86 -12,0 -24,0 -36,0 0,207 0,414 0,620 0,118 55,173 156,173 52,0 82,-25 82,-76zm508 -237c0,-167 -81,-297 -227,-297 -160,0 -238,130 -238,318 0,160 80,296 227,296 158,0 238,-135 238,-317zm-131 23c0,113 -34,175 -97,175 -75,0 -107,-68 -107,-198 0,-114 35,-180 97,-180 72,0 107,60 107,203zm686 -30c0,-173 -87,-290 -222,-290 -153,0 -238,93 -238,311 0,122 0,245 0,367 0,70 41,108 98,108 11,0 21,0 32,0 0,-84 0,-167 0,-251 22,49 68,79 123,79 112,0 207,-84 207,-324zm-131 31c0,116 -33,174 -88,174 -70,0 -112,-55 -112,-210 0,-110 37,-168 90,-168 71,0 110,53 110,204zm638 -105c0,-139 -93,-216 -195,-216 -142,0 -235,120 -235,319 0,185 111,295 235,295 132,0 175,-56 175,-124 0,-16 0,-31 0,-46 -2,0 -3,0 -5,0 -38,43 -89,55 -145,55 -71,0 -122,-45 -131,-134 28,-1 56,-1 84,-2 156,-2 217,-36 217,-147zm-122 -9c0,43 -21,55 -126,57 -18,1 -36,1 -54,1 0,-59 18,-154 96,-154 52,0 84,35 84,96zm497 -60c0,-17 0,-34 0,-50 0,-54 -27,-88 -101,-88 -126,0 -181,96 -181,230 0,91 0,182 0,272 0,55 37,90 97,90 12,0 23,0 34,0 0,-116 0,-233 0,-349 0,-90 26,-125 79,-125 21,0 49,8 67,20 2,0 3,0 5,0zm413 270c0,-86 -55,-135 -154,-162 -76,-21 -89,-35 -89,-69 0,-40 24,-70 92,-70 58,0 107,28 132,58 2,0 4,0 6,0 0,-16 0,-33 0,-49 0,-64 -46,-125 -152,-125 -135,0 -206,91 -206,198 0,85 49,132 149,158 75,19 93,36 93,73 0,43 -25,68 -79,68 -61,0 -115,-25 -145,-57 -2,0 -3,0 -5,0 0,18 0,36 0,54 0,69 63,120 155,120 130,0 203,-74 203,-197z"/>
  <path class="fil7" d="M3149 2678c0,-139 -92,-216 -195,-216 -141,0 -235,120 -235,319 0,185 111,295 235,295 132,0 176,-56 176,-124 0,-16 0,-31 0,-46 -2,0 -4,0 -6,0 -38,43 -89,55 -145,55 -70,0 -121,-45 -130,-134 28,-1 56,-1 84,-2 155,-2 216,-36 216,-147zm-122 -9c0,43 -20,55 -126,57 -18,1 -35,1 -53,1 0,-59 17,-154 96,-154 52,0 83,35 83,96zm612 -134c0,-34 -17,-60 -54,-60 -21,0 -41,0 -61,0 -19,147 -60,301 -102,407 -43,-110 -70,-233 -87,-338 -4,-32 -28,-69 -71,-69 -23,0 -46,0 -69,0 24,199 88,412 169,556 18,33 39,39 60,39 12,0 24,0 37,0 54,-102 95,-211 135,-343 17,-58 43,-162 43,-192zm475 143c0,-139 -93,-216 -195,-216 -142,0 -235,120 -235,319 0,185 111,295 235,295 131,0 175,-56 175,-124 0,-16 0,-31 0,-46 -2,0 -4,0 -5,0 -39,43 -90,55 -145,55 -71,0 -122,-45 -131,-134 28,-1 56,-1 84,-2 156,-2 217,-36 217,-147zm-122 -9c0,43 -21,55 -127,57 -17,1 -35,1 -53,1 0,-59 18,-154 96,-154 52,0 84,35 84,96zm459 327c0,-11 0,-22 0,-33 -10,0 -20,0 -29,0 -58,0 -81,-18 -81,-77 0,-173 0,-347 0,-521 0,-54 -36,-86 -92,-86 -12,0 -24,0 -36,0 0,207 0,414 0,620 0,118 55,173 155,173 53,0 83,-25 83,-76zm507 -237c0,-167 -80,-297 -226,-297 -160,0 -239,130 -239,318 0,160 81,296 228,296 158,0 237,-135 237,-317zm-130 23c0,113 -34,175 -97,175 -75,0 -107,-68 -107,-198 0,-114 35,-180 97,-180 72,0 107,60 107,203zm685 -30c0,-173 -87,-290 -222,-290 -152,0 -237,93 -237,311 0,122 0,245 0,367 0,70 40,108 98,108 10,0 21,0 31,0 0,-84 0,-167 0,-251 22,49 69,79 123,79 113,0 207,-84 207,-324zm-130 31c0,116 -33,174 -88,174 -70,0 -113,-55 -113,-210 0,-110 37,-168 91,-168 70,0 110,53 110,204zm637 -105c0,-139 -92,-216 -194,-216 -142,0 -235,120 -235,319 0,185 111,295 235,295 131,0 175,-56 175,-124 0,-16 0,-31 0,-46 -2,0 -4,0 -6,0 -38,43 -89,55 -144,55 -71,0 -122,-45 -131,-134 28,-1 56,-1 84,-2 156,-2 216,-36 216,-147zm-121 -9c0,43 -21,55 -127,57 -17,1 -35,1 -53,1 0,-59 17,-154 96,-154 52,0 84,35 84,96zm497 -60c0,-17 0,-34 0,-50 0,-54 -27,-88 -101,-88 -126,0 -181,96 -181,230 0,91 0,182 0,272 0,55 37,90 97,90 11,0 22,0 34,0 0,-116 0,-233 0,-349 0,-90 26,-125 79,-125 21,0 49,8 67,20 1,0 3,0 5,0zm412 270c0,-86 -54,-135 -153,-162 -76,-21 -89,-35 -89,-69 0,-40 24,-70 91,-70 59,0 108,28 133,58 2,0 4,0 5,0 0,-16 0,-33 0,-49 0,-64 -45,-125 -151,-125 -135,0 -207,91 -207,198 0,85 49,132 149,158 76,19 94,36 94,73 0,43 -25,68 -79,68 -61,0 -116,-25 -145,-57 -2,0 -4,0 -6,0 0,18 0,36 0,54 0,69 64,120 156,120 130,0 202,-74 202,-197z"/>
  <path class="fil8" d="M3152 2678c0,-139 -93,-216 -195,-216 -142,0 -235,120 -235,319 0,185 111,295 235,295 131,0 175,-56 175,-124 0,-16 0,-31 0,-46 -2,0 -4,0 -5,0 -39,43 -90,55 -145,55 -71,0 -122,-45 -131,-134 28,-1 56,-1 84,-2 156,-2 217,-36 217,-147zm-122 -9c0,43 -21,55 -127,57 -17,1 -35,1 -53,1 0,-59 18,-154 96,-154 52,0 84,35 84,96zm611 -134c0,-34 -17,-60 -54,-60 -20,0 -41,0 -61,0 -18,147 -60,301 -101,407 -44,-110 -71,-233 -87,-338 -5,-32 -29,-69 -72,-69 -23,0 -46,0 -69,0 24,199 88,412 169,556 19,33 39,39 60,39 12,0 25,0 37,0 54,-102 96,-211 135,-343 17,-58 43,-162 43,-192zm475 143c0,-139 -93,-216 -195,-216 -141,0 -235,120 -235,319 0,185 111,295 235,295 132,0 175,-56 175,-124 0,-16 0,-31 0,-46 -1,0 -3,0 -5,0 -38,43 -89,55 -145,55 -71,0 -122,-45 -130,-134 27,-1 55,-1 83,-2 156,-2 217,-36 217,-147zm-122 -9c0,43 -21,55 -126,57 -18,1 -36,1 -54,1 0,-59 18,-154 96,-154 52,0 84,35 84,96zm459 327c0,-11 0,-22 0,-33 -9,0 -19,0 -29,0 -58,0 -81,-18 -81,-77 0,-173 0,-347 0,-521 0,-54 -35,-86 -92,-86 -12,0 -24,0 -36,0 0,207 0,414 0,620 0,118 55,173 156,173 52,0 82,-25 82,-76zm508 -237c0,-167 -81,-297 -227,-297 -160,0 -238,130 -238,318 0,160 80,296 227,296 158,0 238,-135 238,-317zm-131 23c0,113 -34,175 -97,175 -75,0 -107,-68 -107,-198 0,-114 35,-180 97,-180 72,0 107,60 107,203zm686 -30c0,-173 -87,-290 -222,-290 -153,0 -238,93 -238,311 0,122 0,245 0,367 0,70 41,108 98,108 11,0 21,0 32,0 0,-84 0,-167 0,-251 22,49 68,79 123,79 112,0 207,-84 207,-324zm-131 31c0,116 -33,174 -88,174 -70,0 -112,-55 -112,-210 0,-110 37,-168 90,-168 71,0 110,53 110,204zm638 -105c0,-139 -93,-216 -195,-216 -141,0 -235,120 -235,319 0,185 111,295 235,295 132,0 175,-56 175,-124 0,-16 0,-31 0,-46 -2,0 -3,0 -5,0 -38,43 -89,55 -145,55 -71,0 -122,-45 -131,-134 28,-1 56,-1 84,-2 156,-2 217,-36 217,-147zm-122 -9c0,43 -21,55 -126,57 -18,1 -36,1 -54,1 0,-59 18,-154 96,-154 52,0 84,35 84,96zm497 -60c0,-17 0,-34 0,-50 0,-54 -27,-88 -101,-88 -126,0 -181,96 -181,230 0,91 0,182 0,272 0,55 37,90 97,90 12,0 23,0 34,0 0,-116 0,-233 0,-349 0,-90 26,-125 80,-125 20,0 48,8 66,20 2,0 4,0 5,0zm413 270c0,-86 -55,-135 -154,-162 -76,-21 -89,-35 -89,-69 0,-40 24,-70 92,-70 58,0 107,28 132,58 2,0 4,0 6,0 0,-16 0,-33 0,-49 0,-64 -46,-125 -152,-125 -134,0 -206,91 -206,198 0,85 49,132 149,158 75,19 93,36 93,73 0,43 -25,68 -79,68 -61,0 -115,-25 -145,-57 -2,0 -3,0 -5,0 0,18 0,36 0,54 0,69 63,120 155,120 130,0 203,-74 203,-197z"/>
  <path class="fil8" d="M3154 2678c0,-139 -93,-216 -195,-216 -141,0 -235,120 -235,319 0,185 111,295 235,295 132,0 175,-56 175,-124 0,-16 0,-31 0,-46 -1,0 -3,0 -5,0 -38,43 -89,55 -145,55 -71,0 -122,-45 -130,-134 27,-1 55,-1 83,-2 156,-2 217,-36 217,-147zm-122 -9c0,43 -21,55 -126,57 -18,1 -36,1 -54,1 0,-59 18,-154 96,-154 52,0 84,35 84,96zm612 -134c0,-34 -18,-60 -55,-60 -20,0 -40,0 -61,0 -18,147 -59,301 -101,407 -43,-110 -71,-233 -87,-338 -4,-32 -28,-69 -72,-69 -23,0 -45,0 -68,0 24,199 88,412 168,556 19,33 40,39 60,39 13,0 25,0 37,0 55,-102 96,-211 135,-343 18,-58 44,-162 44,-192zm474 143c0,-139 -92,-216 -195,-216 -141,0 -235,120 -235,319 0,185 111,295 235,295 132,0 176,-56 176,-124 0,-16 0,-31 0,-46 -2,0 -4,0 -6,0 -38,43 -89,55 -144,55 -71,0 -122,-45 -131,-134 28,-1 56,-1 84,-2 155,-2 216,-36 216,-147zm-122 -9c0,43 -20,55 -126,57 -18,1 -35,1 -53,1 0,-59 17,-154 96,-154 52,0 83,35 83,96zm460 327c0,-11 0,-22 0,-33 -10,0 -20,0 -30,0 -57,0 -80,-18 -80,-77 0,-173 0,-347 0,-521 0,-54 -36,-86 -93,-86 -12,0 -24,0 -36,0 0,207 0,414 0,620 0,118 56,173 156,173 52,0 83,-25 83,-76zm507 -237c0,-167 -81,-297 -226,-297 -160,0 -239,130 -239,318 0,160 81,296 228,296 157,0 237,-135 237,-317zm-131 23c0,113 -33,175 -97,175 -75,0 -106,-68 -106,-198 0,-114 35,-180 97,-180 71,0 106,60 106,203zm686 -30c0,-173 -87,-290 -222,-290 -152,0 -237,93 -237,311 0,122 0,245 0,367 0,70 40,108 98,108 10,0 21,0 31,0 0,-84 0,-167 0,-251 22,49 69,79 123,79 112,0 207,-84 207,-324zm-131 31c0,116 -32,174 -88,174 -69,0 -112,-55 -112,-210 0,-110 37,-168 90,-168 71,0 110,53 110,204zm638 -105c0,-139 -92,-216 -195,-216 -141,0 -235,120 -235,319 0,185 111,295 235,295 132,0 176,-56 176,-124 0,-16 0,-31 0,-46 -2,0 -4,0 -6,0 -38,43 -89,55 -145,55 -70,0 -122,-45 -130,-134 28,-1 56,-1 84,-2 155,-2 216,-36 216,-147zm-122 -9c0,43 -20,55 -126,57 -18,1 -36,1 -53,1 0,-59 17,-154 95,-154 53,0 84,35 84,96zm498 -60c0,-17 0,-34 0,-50 0,-54 -28,-88 -102,-88 -126,0 -180,96 -180,230 0,91 0,182 0,272 0,55 37,90 97,90 11,0 22,0 33,0 0,-116 0,-233 0,-349 0,-90 27,-125 80,-125 21,0 49,8 66,20 2,0 4,0 6,0zm412 270c0,-86 -54,-135 -153,-162 -76,-21 -90,-35 -90,-69 0,-40 24,-70 92,-70 59,0 108,28 133,58 2,0 3,0 5,0 0,-16 0,-33 0,-49 0,-64 -46,-125 -151,-125 -135,0 -207,91 -207,198 0,85 49,132 149,158 75,19 94,36 94,73 0,43 -25,68 -80,68 -61,0 -115,-25 -144,-57 -2,0 -4,0 -6,0 0,18 0,36 0,54 0,69 63,120 156,120 129,0 202,-74 202,-197z"/>
  <path class="fil8" d="M3156 2678c0,-139 -92,-216 -195,-216 -141,0 -235,120 -235,319 0,185 111,295 235,295 132,0 176,-56 176,-124 0,-16 0,-31 0,-46 -2,0 -4,0 -6,0 -38,43 -89,55 -144,55 -71,0 -122,-45 -131,-134 28,-1 56,-1 84,-2 155,-2 216,-36 216,-147zm-122 -9c0,43 -20,55 -126,57 -18,1 -35,1 -53,1 0,-59 17,-154 96,-154 52,0 83,35 83,96zm612 -134c0,-34 -17,-60 -54,-60 -21,0 -41,0 -61,0 -19,147 -60,301 -102,407 -43,-110 -70,-233 -87,-338 -4,-32 -28,-69 -71,-69 -23,0 -46,0 -69,0 24,199 88,412 169,556 18,33 39,39 60,39 12,0 24,0 37,0 54,-102 95,-211 135,-343 17,-58 43,-162 43,-192zm475 143c0,-139 -93,-216 -195,-216 -142,0 -235,120 -235,319 0,185 111,295 235,295 132,0 175,-56 175,-124 0,-16 0,-31 0,-46 -2,0 -4,0 -5,0 -38,43 -90,55 -145,55 -71,0 -122,-45 -131,-134 28,-1 56,-1 84,-2 156,-2 217,-36 217,-147zm-122 -9c0,43 -21,55 -127,57 -17,1 -35,1 -53,1 0,-59 18,-154 96,-154 52,0 84,35 84,96zm459 327c0,-11 0,-22 0,-33 -10,0 -20,0 -29,0 -58,0 -81,-18 -81,-77 0,-173 0,-347 0,-521 0,-54 -36,-86 -92,-86 -12,0 -24,0 -36,0 0,207 0,414 0,620 0,118 55,173 155,173 53,0 83,-25 83,-76zm507 -237c0,-167 -80,-297 -226,-297 -160,0 -239,130 -239,318 0,160 81,296 228,296 158,0 237,-135 237,-317zm-130 23c0,113 -34,175 -97,175 -75,0 -107,-68 -107,-198 0,-114 35,-180 97,-180 72,0 107,60 107,203zm685 -30c0,-173 -87,-290 -222,-290 -152,0 -237,93 -237,311 0,122 0,245 0,367 0,70 40,108 98,108 10,0 21,0 32,0 0,-84 0,-167 0,-251 21,49 68,79 123,79 112,0 206,-84 206,-324zm-130 31c0,116 -33,174 -88,174 -70,0 -113,-55 -113,-210 0,-110 37,-168 91,-168 71,0 110,53 110,204zm638 -105c0,-139 -93,-216 -195,-216 -142,0 -235,120 -235,319 0,185 111,295 235,295 131,0 175,-56 175,-124 0,-16 0,-31 0,-46 -2,0 -4,0 -5,0 -39,43 -90,55 -145,55 -71,0 -122,-45 -131,-134 28,-1 56,-1 84,-2 156,-2 217,-36 217,-147zm-122 -9c0,43 -21,55 -127,57 -17,1 -35,1 -53,1 0,-59 17,-154 96,-154 52,0 84,35 84,96zm497 -60c0,-17 0,-34 0,-50 0,-54 -27,-88 -101,-88 -126,0 -181,96 -181,230 0,91 0,182 0,272 0,55 37,90 97,90 11,0 22,0 34,0 0,-116 0,-233 0,-349 0,-90 26,-125 79,-125 21,0 49,8 67,20 1,0 3,0 5,0zm413 270c0,-86 -55,-135 -154,-162 -76,-21 -89,-35 -89,-69 0,-40 24,-70 91,-70 59,0 108,28 133,58 2,0 4,0 5,0 0,-16 0,-33 0,-49 0,-64 -45,-125 -151,-125 -135,0 -207,91 -207,198 0,85 49,132 150,158 75,19 93,36 93,73 0,43 -25,68 -79,68 -61,0 -116,-25 -145,-57 -2,0 -4,0 -6,0 0,18 0,36 0,54 0,69 64,120 156,120 130,0 203,-74 203,-197z"/>
  <path class="fil8" d="M3159 2678c0,-139 -93,-216 -195,-216 -142,0 -235,120 -235,319 0,185 111,295 235,295 132,0 175,-56 175,-124 0,-16 0,-31 0,-46 -2,0 -4,0 -5,0 -38,43 -90,55 -145,55 -71,0 -122,-45 -131,-134 28,-1 56,-1 84,-2 156,-2 217,-36 217,-147zm-122 -9c0,43 -21,55 -127,57 -17,1 -35,1 -53,1 0,-59 18,-154 96,-154 52,0 84,35 84,96zm611 -134c0,-34 -17,-60 -54,-60 -20,0 -41,0 -61,0 -18,147 -60,301 -101,407 -44,-110 -71,-233 -87,-338 -5,-32 -29,-69 -72,-69 -23,0 -46,0 -69,0 24,199 89,412 169,556 19,33 39,39 60,39 12,0 25,0 37,0 54,-102 96,-211 135,-343 17,-58 43,-162 43,-192zm475 143c0,-139 -93,-216 -195,-216 -141,0 -235,120 -235,319 0,185 111,295 235,295 132,0 175,-56 175,-124 0,-16 0,-31 0,-46 -1,0 -3,0 -5,0 -38,43 -89,55 -145,55 -71,0 -122,-45 -130,-134 28,-1 55,-1 83,-2 156,-2 217,-36 217,-147zm-122 -9c0,43 -21,55 -126,57 -18,1 -36,1 -54,1 0,-59 18,-154 96,-154 53,0 84,35 84,96zm459 327c0,-11 0,-22 0,-33 -9,0 -19,0 -29,0 -58,0 -81,-18 -81,-77 0,-173 0,-347 0,-521 0,-54 -35,-86 -92,-86 -12,0 -24,0 -36,0 0,207 0,414 0,620 0,118 56,173 156,173 52,0 82,-25 82,-76zm508 -237c0,-167 -81,-297 -227,-297 -160,0 -238,130 -238,318 0,160 80,296 227,296 158,0 238,-135 238,-317zm-131 23c0,113 -34,175 -97,175 -75,0 -107,-68 -107,-198 0,-114 35,-180 97,-180 72,0 107,60 107,203zm686 -30c0,-173 -87,-290 -222,-290 -153,0 -238,93 -238,311 0,122 0,245 0,367 0,70 41,108 98,108 11,0 21,0 32,0 0,-84 0,-167 0,-251 22,49 68,79 123,79 112,0 207,-84 207,-324zm-131 31c0,116 -33,174 -88,174 -70,0 -112,-55 -112,-210 0,-110 37,-168 90,-168 71,0 110,53 110,204zm638 -105c0,-139 -93,-216 -195,-216 -141,0 -235,120 -235,319 0,185 111,295 235,295 132,0 175,-56 175,-124 0,-16 0,-31 0,-46 -2,0 -3,0 -5,0 -38,43 -89,55 -145,55 -71,0 -122,-45 -131,-134 28,-1 56,-1 84,-2 156,-2 217,-36 217,-147zm-122 -9c0,43 -21,55 -126,57 -18,1 -36,1 -54,1 0,-59 18,-154 96,-154 52,0 84,35 84,96zm497 -60c0,-17 0,-34 0,-50 0,-54 -27,-88 -101,-88 -126,0 -181,96 -181,230 0,91 0,182 0,272 0,55 37,90 97,90 12,0 23,0 34,0 0,-116 0,-233 0,-349 0,-90 26,-125 80,-125 20,0 49,8 66,20 2,0 4,0 5,0zm413 270c0,-86 -55,-135 -154,-162 -76,-21 -89,-35 -89,-69 0,-40 24,-70 92,-70 58,0 107,28 132,58 2,0 4,0 6,0 0,-16 0,-33 0,-49 0,-64 -46,-125 -151,-125 -135,0 -207,91 -207,198 0,85 49,132 149,158 75,19 93,36 93,73 0,43 -25,68 -79,68 -61,0 -115,-25 -145,-57 -2,0 -3,0 -5,0 0,18 0,36 0,54 0,69 63,120 155,120 130,0 203,-74 203,-197z"/>
  <path class="fil9" d="M3161 2678c0,-139 -93,-216 -195,-216 -141,0 -235,120 -235,319 0,185 111,295 235,295 132,0 175,-56 175,-124 0,-16 0,-31 0,-46 -1,0 -3,0 -5,0 -38,43 -89,55 -145,55 -71,0 -122,-45 -130,-134 28,-1 55,-1 83,-2 156,-2 217,-36 217,-147zm-122 -9c0,43 -21,55 -126,57 -18,1 -36,1 -53,1 0,-59 17,-154 95,-154 53,0 84,35 84,96zm612 -134c0,-34 -18,-60 -55,-60 -20,0 -40,0 -61,0 -18,147 -59,301 -101,407 -43,-110 -71,-233 -87,-338 -4,-32 -28,-69 -72,-69 -23,0 -45,0 -68,0 24,199 88,412 168,556 19,33 40,39 60,39 13,0 25,0 37,0 55,-102 96,-211 135,-343 18,-58 44,-162 44,-192zm474 143c0,-139 -92,-216 -194,-216 -142,0 -236,120 -236,319 0,185 111,295 236,295 131,0 175,-56 175,-124 0,-16 0,-31 0,-46 -2,0 -4,0 -6,0 -38,43 -89,55 -144,55 -71,0 -122,-45 -131,-134 28,-1 56,-1 84,-2 155,-2 216,-36 216,-147zm-122 -9c0,43 -20,55 -126,57 -18,1 -35,1 -53,1 0,-59 17,-154 96,-154 52,0 83,35 83,96zm460 327c0,-11 0,-22 0,-33 -10,0 -20,0 -30,0 -57,0 -80,-18 -80,-77 0,-173 0,-347 0,-521 0,-54 -36,-86 -93,-86 -12,0 -24,0 -36,0 0,207 0,414 0,620 0,118 56,173 156,173 52,0 83,-25 83,-76zm507 -237c0,-167 -81,-297 -226,-297 -160,0 -239,130 -239,318 0,160 81,296 228,296 157,0 237,-135 237,-317zm-131 23c0,113 -33,175 -97,175 -75,0 -106,-68 -106,-198 0,-114 35,-180 97,-180 72,0 106,60 106,203zm686 -30c0,-173 -87,-290 -222,-290 -152,0 -237,93 -237,311 0,122 0,245 0,367 0,70 40,108 98,108 10,0 21,0 31,0 0,-84 0,-167 0,-251 22,49 69,79 123,79 112,0 207,-84 207,-324zm-131 31c0,116 -32,174 -88,174 -69,0 -112,-55 -112,-210 0,-110 37,-168 90,-168 71,0 110,53 110,204zm638 -105c0,-139 -92,-216 -195,-216 -141,0 -235,120 -235,319 0,185 111,295 235,295 132,0 176,-56 176,-124 0,-16 0,-31 0,-46 -2,0 -4,0 -6,0 -38,43 -89,55 -145,55 -70,0 -121,-45 -130,-134 28,-1 56,-1 84,-2 155,-2 216,-36 216,-147zm-122 -9c0,43 -20,55 -126,57 -18,1 -35,1 -53,1 0,-59 17,-154 96,-154 52,0 83,35 83,96zm498 -60c0,-17 0,-34 0,-50 0,-54 -27,-88 -101,-88 -127,0 -181,96 -181,230 0,91 0,182 0,272 0,55 37,90 97,90 11,0 22,0 33,0 0,-116 0,-233 0,-349 0,-90 27,-125 80,-125 21,0 49,8 66,20 2,0 4,0 6,0zm412 270c0,-86 -54,-135 -153,-162 -76,-21 -89,-35 -89,-69 0,-40 23,-70 91,-70 59,0 108,28 133,58 2,0 3,0 5,0 0,-16 0,-33 0,-49 0,-64 -46,-125 -151,-125 -135,0 -207,91 -207,198 0,85 49,132 149,158 75,19 94,36 94,73 0,43 -25,68 -80,68 -61,0 -115,-25 -144,-57 -2,0 -4,0 -6,0 0,18 0,36 0,54 0,69 63,120 156,120 129,0 202,-74 202,-197z"/>
  <path class="fil9" d="M3163 2678c0,-139 -92,-216 -194,-216 -142,0 -236,120 -236,319 0,185 111,295 236,295 131,0 175,-56 175,-124 0,-16 0,-31 0,-46 -2,0 -4,0 -6,0 -38,43 -89,55 -144,55 -71,0 -122,-45 -131,-134 28,-1 56,-1 84,-2 155,-2 216,-36 216,-147zm-122 -9c0,43 -20,55 -126,57 -18,1 -35,1 -53,1 0,-59 17,-154 96,-154 52,0 83,35 83,96zm612 -134c0,-34 -17,-60 -54,-60 -21,0 -41,0 -61,0 -19,147 -60,301 -101,407 -44,-110 -71,-233 -88,-338 -4,-32 -28,-69 -71,-69 -23,0 -46,0 -69,0 24,199 88,412 169,556 18,33 39,39 60,39 12,0 24,0 37,0 54,-102 95,-211 135,-343 17,-58 43,-162 43,-192zm475 143c0,-139 -93,-216 -195,-216 -142,0 -235,120 -235,319 0,185 111,295 235,295 132,0 175,-56 175,-124 0,-16 0,-31 0,-46 -2,0 -4,0 -5,0 -38,43 -90,55 -145,55 -71,0 -122,-45 -131,-134 28,-1 56,-1 84,-2 156,-2 217,-36 217,-147zm-122 -9c0,43 -21,55 -126,57 -18,1 -36,1 -54,1 0,-59 18,-154 96,-154 52,0 84,35 84,96zm459 327c0,-11 0,-22 0,-33 -10,0 -20,0 -29,0 -58,0 -81,-18 -81,-77 0,-173 0,-347 0,-521 0,-54 -36,-86 -92,-86 -12,0 -24,0 -36,0 0,207 0,414 0,620 0,118 55,173 155,173 53,0 83,-25 83,-76zm507 -237c0,-167 -80,-297 -226,-297 -160,0 -238,130 -238,318 0,160 80,296 227,296 158,0 237,-135 237,-317zm-130 23c0,113 -34,175 -97,175 -75,0 -107,-68 -107,-198 0,-114 35,-180 97,-180 72,0 107,60 107,203zm685 -30c0,-173 -87,-290 -222,-290 -152,0 -237,93 -237,311 0,122 0,245 0,367 0,70 40,108 98,108 11,0 21,0 32,0 0,-84 0,-167 0,-251 21,49 68,79 123,79 112,0 206,-84 206,-324zm-130 31c0,116 -33,174 -88,174 -70,0 -113,-55 -113,-210 0,-110 38,-168 91,-168 71,0 110,53 110,204zm638 -105c0,-139 -93,-216 -195,-216 -142,0 -235,120 -235,319 0,185 111,295 235,295 131,0 175,-56 175,-124 0,-16 0,-31 0,-46 -2,0 -4,0 -5,0 -39,43 -90,55 -145,55 -71,0 -122,-45 -131,-134 28,-1 56,-1 84,-2 156,-2 217,-36 217,-147zm-122 -9c0,43 -21,55 -127,57 -17,1 -35,1 -53,1 0,-59 18,-154 96,-154 52,0 84,35 84,96zm497 -60c0,-17 0,-34 0,-50 0,-54 -27,-88 -101,-88 -126,0 -181,96 -181,230 0,91 0,182 0,272 0,55 37,90 97,90 11,0 23,0 34,0 0,-116 0,-233 0,-349 0,-90 26,-125 79,-125 21,0 49,8 67,20 1,0 3,0 5,0zm413 270c0,-86 -55,-135 -154,-162 -76,-21 -89,-35 -89,-69 0,-40 24,-70 91,-70 59,0 108,28 133,58 2,0 4,0 6,0 0,-16 0,-33 0,-49 0,-64 -46,-125 -152,-125 -135,0 -207,91 -207,198 0,85 49,132 150,158 75,19 93,36 93,73 0,43 -25,68 -79,68 -61,0 -116,-25 -145,-57 -2,0 -4,0 -5,0 0,18 0,36 0,54 0,69 63,120 155,120 130,0 203,-74 203,-197z"/>
  <path class="fil9" d="M3166 2678c0,-139 -93,-216 -195,-216 -142,0 -235,120 -235,319 0,185 111,295 235,295 132,0 175,-56 175,-124 0,-16 0,-31 0,-46 -2,0 -4,0 -5,0 -38,43 -90,55 -145,55 -71,0 -122,-45 -131,-134 28,-1 56,-1 84,-2 156,-2 217,-36 217,-147zm-122 -9c0,43 -21,55 -126,57 -18,1 -36,1 -54,1 0,-59 18,-154 96,-154 52,0 84,35 84,96zm611 -134c0,-34 -17,-60 -54,-60 -20,0 -41,0 -61,0 -18,147 -60,301 -101,407 -44,-110 -71,-233 -87,-338 -5,-32 -28,-69 -72,-69 -23,0 -46,0 -69,0 24,199 89,412 169,556 19,33 39,39 60,39 12,0 25,0 37,0 54,-102 96,-211 135,-343 17,-58 43,-162 43,-192zm475 143c0,-139 -92,-216 -195,-216 -141,0 -235,120 -235,319 0,185 111,295 235,295 132,0 175,-56 175,-124 0,-16 0,-31 0,-46 -1,0 -3,0 -5,0 -38,43 -89,55 -145,55 -71,0 -122,-45 -130,-134 28,-1 56,-1 83,-2 156,-2 217,-36 217,-147zm-122 -9c0,43 -21,55 -126,57 -18,1 -36,1 -53,1 0,-59 17,-154 95,-154 53,0 84,35 84,96zm459 327c0,-11 0,-22 0,-33 -9,0 -19,0 -29,0 -58,0 -80,-18 -80,-77 0,-173 0,-347 0,-521 0,-54 -36,-86 -93,-86 -12,0 -24,0 -36,0 0,207 0,414 0,620 0,118 56,173 156,173 52,0 82,-25 82,-76zm508 -237c0,-167 -81,-297 -227,-297 -160,0 -238,130 -238,318 0,160 80,296 227,296 158,0 238,-135 238,-317zm-131 23c0,113 -34,175 -97,175 -75,0 -107,-68 -107,-198 0,-114 35,-180 97,-180 72,0 107,60 107,203zm686 -30c0,-173 -87,-290 -222,-290 -153,0 -238,93 -238,311 0,122 0,245 0,367 0,70 41,108 98,108 11,0 21,0 32,0 0,-84 0,-167 0,-251 22,49 69,79 123,79 112,0 207,-84 207,-324zm-131 31c0,116 -33,174 -88,174 -70,0 -112,-55 -112,-210 0,-110 37,-168 90,-168 71,0 110,53 110,204zm638 -105c0,-139 -93,-216 -195,-216 -141,0 -235,120 -235,319 0,185 111,295 235,295 132,0 175,-56 175,-124 0,-16 0,-31 0,-46 -1,0 -3,0 -5,0 -38,43 -89,55 -145,55 -71,0 -122,-45 -130,-134 27,-1 55,-1 83,-2 156,-2 217,-36 217,-147zm-122 -9c0,43 -21,55 -126,57 -18,1 -36,1 -54,1 0,-59 18,-154 96,-154 52,0 84,35 84,96zm497 -60c0,-17 0,-34 0,-50 0,-54 -27,-88 -101,-88 -126,0 -180,96 -180,230 0,91 0,182 0,272 0,55 37,90 96,90 12,0 23,0 34,0 0,-116 0,-233 0,-349 0,-90 26,-125 80,-125 20,0 49,8 66,20 2,0 4,0 5,0zm413 270c0,-86 -54,-135 -154,-162 -76,-21 -89,-35 -89,-69 0,-40 24,-70 92,-70 58,0 107,28 132,58 2,0 4,0 6,0 0,-16 0,-33 0,-49 0,-64 -46,-125 -151,-125 -135,0 -207,91 -207,198 0,85 49,132 149,158 75,19 94,36 94,73 0,43 -26,68 -80,68 -61,0 -115,-25 -145,-57 -2,0 -3,0 -5,0 0,18 0,36 0,54 0,69 63,120 155,120 130,0 203,-74 203,-197z"/>
  <path class="fil9" d="M3168 2678c0,-139 -92,-216 -195,-216 -141,0 -235,120 -235,319 0,185 111,295 235,295 132,0 175,-56 175,-124 0,-16 0,-31 0,-46 -1,0 -3,0 -5,0 -38,43 -89,55 -145,55 -70,0 -122,-45 -130,-134 28,-1 56,-1 83,-2 156,-2 217,-36 217,-147zm-122 -9c0,43 -21,55 -126,57 -18,1 -36,1 -53,1 0,-59 17,-154 95,-154 53,0 84,35 84,96zm612 -134c0,-34 -18,-60 -55,-60 -20,0 -40,0 -61,0 -18,147 -59,301 -101,407 -43,-110 -71,-233 -87,-338 -4,-32 -28,-69 -72,-69 -23,0 -45,0 -68,0 24,199 88,412 168,556 19,33 40,39 60,39 13,0 25,0 37,0 55,-102 96,-211 135,-343 18,-58 44,-162 44,-192zm474 143c0,-139 -92,-216 -194,-216 -142,0 -236,120 -236,319 0,185 111,295 236,295 131,0 175,-56 175,-124 0,-16 0,-31 0,-46 -2,0 -4,0 -6,0 -38,43 -89,55 -144,55 -71,0 -122,-45 -131,-134 28,-1 56,-1 84,-2 155,-2 216,-36 216,-147zm-122 -9c0,43 -20,55 -126,57 -18,1 -35,1 -53,1 0,-59 17,-154 96,-154 52,0 83,35 83,96zm460 327c0,-11 0,-22 0,-33 -10,0 -20,0 -30,0 -57,0 -80,-18 -80,-77 0,-173 0,-347 0,-521 0,-54 -36,-86 -93,-86 -12,0 -24,0 -36,0 0,207 0,414 0,620 0,118 56,173 156,173 52,0 83,-25 83,-76zm507 -237c0,-167 -81,-297 -226,-297 -160,0 -239,130 -239,318 0,160 81,296 228,296 158,0 237,-135 237,-317zm-131 23c0,113 -33,175 -96,175 -76,0 -107,-68 -107,-198 0,-114 35,-180 97,-180 72,0 106,60 106,203zm686 -30c0,-173 -87,-290 -222,-290 -152,0 -237,93 -237,311 0,122 0,245 0,367 0,70 40,108 98,108 10,0 21,0 31,0 0,-84 0,-167 0,-251 22,49 69,79 123,79 112,0 207,-84 207,-324zm-131 31c0,116 -32,174 -88,174 -69,0 -112,-55 -112,-210 0,-110 37,-168 91,-168 70,0 109,53 109,204zm638 -105c0,-139 -92,-216 -195,-216 -141,0 -235,120 -235,319 0,185 111,295 235,295 132,0 176,-56 176,-124 0,-16 0,-31 0,-46 -2,0 -4,0 -6,0 -38,43 -89,55 -145,55 -70,0 -121,-45 -130,-134 28,-1 56,-1 84,-2 155,-2 216,-36 216,-147zm-122 -9c0,43 -20,55 -126,57 -18,1 -35,1 -53,1 0,-59 17,-154 96,-154 52,0 83,35 83,96zm498 -60c0,-17 0,-34 0,-50 0,-54 -27,-88 -101,-88 -127,0 -181,96 -181,230 0,91 0,182 0,272 0,55 37,90 97,90 11,0 22,0 33,0 0,-116 0,-233 0,-349 0,-90 27,-125 80,-125 21,0 49,8 66,20 2,0 4,0 6,0zm412 270c0,-86 -54,-135 -153,-162 -76,-21 -89,-35 -89,-69 0,-40 24,-70 91,-70 59,0 108,28 133,58 2,0 3,0 5,0 0,-16 0,-33 0,-49 0,-64 -45,-125 -151,-125 -135,0 -207,91 -207,198 0,85 49,132 149,158 75,19 94,36 94,73 0,43 -25,68 -80,68 -61,0 -115,-25 -144,-57 -2,0 -4,0 -6,0 0,18 0,36 0,54 0,69 63,120 156,120 129,0 202,-74 202,-197z"/>
  <path class="fil10" d="M3170 2678c0,-139 -92,-216 -194,-216 -142,0 -236,120 -236,319 0,185 111,295 236,295 131,0 175,-56 175,-124 0,-16 0,-31 0,-46 -2,0 -4,0 -6,0 -38,43 -89,55 -144,55 -71,0 -122,-45 -131,-134 28,-1 56,-1 84,-2 155,-2 216,-36 216,-147zm-122 -9c0,43 -20,55 -126,57 -18,1 -35,1 -53,1 0,-59 17,-154 96,-154 52,0 83,35 83,96zm612 -134c0,-34 -17,-60 -54,-60 -21,0 -41,0 -61,0 -19,147 -60,301 -101,407 -44,-110 -71,-233 -87,-338 -5,-32 -29,-69 -72,-69 -23,0 -46,0 -69,0 24,199 88,412 169,556 18,33 39,39 60,39 12,0 24,0 37,0 54,-102 95,-211 135,-343 17,-58 43,-162 43,-192zm475 143c0,-139 -93,-216 -195,-216 -142,0 -235,120 -235,319 0,185 111,295 235,295 132,0 175,-56 175,-124 0,-16 0,-31 0,-46 -2,0 -3,0 -5,0 -38,43 -90,55 -145,55 -71,0 -122,-45 -131,-134 28,-1 56,-1 84,-2 156,-2 217,-36 217,-147zm-122 -9c0,43 -21,55 -126,57 -18,1 -36,1 -54,1 0,-59 18,-154 96,-154 52,0 84,35 84,96zm459 327c0,-11 0,-22 0,-33 -10,0 -19,0 -29,0 -58,0 -81,-18 -81,-77 0,-173 0,-347 0,-521 0,-54 -36,-86 -92,-86 -12,0 -24,0 -36,0 0,207 0,414 0,620 0,118 55,173 155,173 53,0 83,-25 83,-76zm507 -237c0,-167 -80,-297 -226,-297 -160,0 -238,130 -238,318 0,160 80,296 227,296 158,0 237,-135 237,-317zm-130 23c0,113 -34,175 -97,175 -75,0 -107,-68 -107,-198 0,-114 35,-180 97,-180 72,0 107,60 107,203zm685 -30c0,-173 -87,-290 -222,-290 -152,0 -237,93 -237,311 0,122 0,245 0,367 0,70 40,108 98,108 11,0 21,0 32,0 0,-84 0,-167 0,-251 21,49 68,79 123,79 112,0 206,-84 206,-324zm-130 31c0,116 -33,174 -88,174 -70,0 -112,-55 -112,-210 0,-110 37,-168 90,-168 71,0 110,53 110,204zm638 -105c0,-139 -93,-216 -195,-216 -142,0 -235,120 -235,319 0,185 111,295 235,295 131,0 175,-56 175,-124 0,-16 0,-31 0,-46 -2,0 -4,0 -5,0 -39,43 -90,55 -145,55 -71,0 -122,-45 -131,-134 28,-1 56,-1 84,-2 156,-2 217,-36 217,-147zm-122 -9c0,43 -21,55 -127,57 -17,1 -35,1 -53,1 0,-59 18,-154 96,-154 52,0 84,35 84,96zm497 -60c0,-17 0,-34 0,-50 0,-54 -27,-88 -101,-88 -126,0 -181,96 -181,230 0,91 0,182 0,272 0,55 37,90 97,90 11,0 23,0 34,0 0,-116 0,-233 0,-349 0,-90 26,-125 79,-125 21,0 49,8 67,20 1,0 3,0 5,0zm413 270c0,-86 -55,-135 -154,-162 -76,-21 -89,-35 -89,-69 0,-40 24,-70 91,-70 59,0 108,28 133,58 2,0 4,0 6,0 0,-16 0,-33 0,-49 0,-64 -46,-125 -152,-125 -135,0 -207,91 -207,198 0,85 49,132 150,158 75,19 93,36 93,73 0,43 -25,68 -79,68 -61,0 -116,-25 -145,-57 -2,0 -4,0 -5,0 0,18 0,36 0,54 0,69 63,120 155,120 130,0 203,-74 203,-197z"/>
  <path class="fil10" d="M3173 2678c0,-139 -93,-216 -195,-216 -142,0 -235,120 -235,319 0,185 111,295 235,295 132,0 175,-56 175,-124 0,-16 0,-31 0,-46 -2,0 -3,0 -5,0 -38,43 -90,55 -145,55 -71,0 -122,-45 -131,-134 28,-1 56,-1 84,-2 156,-2 217,-36 217,-147zm-122 -9c0,43 -21,55 -126,57 -18,1 -36,1 -54,1 0,-59 18,-154 96,-154 52,0 84,35 84,96zm612 -134c0,-34 -18,-60 -55,-60 -20,0 -41,0 -61,0 -18,147 -60,301 -101,407 -44,-110 -71,-233 -87,-338 -4,-32 -28,-69 -72,-69 -23,0 -46,0 -69,0 24,199 89,412 169,556 19,33 39,39 60,39 12,0 25,0 37,0 54,-102 96,-211 135,-343 17,-58 44,-162 44,-192zm474 143c0,-139 -92,-216 -195,-216 -141,0 -235,120 -235,319 0,185 111,295 235,295 132,0 175,-56 175,-124 0,-16 0,-31 0,-46 -1,0 -3,0 -5,0 -38,43 -89,55 -145,55 -70,0 -122,-45 -130,-134 28,-1 56,-1 83,-2 156,-2 217,-36 217,-147zm-122 -9c0,43 -21,55 -126,57 -18,1 -36,1 -53,1 0,-59 17,-154 95,-154 53,0 84,35 84,96zm459 327c0,-11 0,-22 0,-33 -9,0 -19,0 -29,0 -58,0 -80,-18 -80,-77 0,-173 0,-347 0,-521 0,-54 -36,-86 -93,-86 -12,0 -24,0 -36,0 0,207 0,414 0,620 0,118 56,173 156,173 52,0 82,-25 82,-76zm508 -237c0,-167 -81,-297 -227,-297 -160,0 -238,130 -238,318 0,160 80,296 227,296 158,0 238,-135 238,-317zm-131 23c0,113 -34,175 -97,175 -75,0 -106,-68 -106,-198 0,-114 34,-180 96,-180 72,0 107,60 107,203zm686 -30c0,-173 -87,-290 -222,-290 -153,0 -238,93 -238,311 0,122 0,245 0,367 0,70 41,108 98,108 11,0 21,0 32,0 0,-84 0,-167 0,-251 22,49 69,79 123,79 112,0 207,-84 207,-324zm-131 31c0,116 -32,174 -88,174 -70,0 -112,-55 -112,-210 0,-110 37,-168 90,-168 71,0 110,53 110,204zm638 -105c0,-139 -93,-216 -195,-216 -141,0 -235,120 -235,319 0,185 111,295 235,295 132,0 175,-56 175,-124 0,-16 0,-31 0,-46 -1,0 -3,0 -5,0 -38,43 -89,55 -145,55 -71,0 -122,-45 -130,-134 28,-1 55,-1 83,-2 156,-2 217,-36 217,-147zm-122 -9c0,43 -21,55 -126,57 -18,1 -36,1 -54,1 0,-59 18,-154 96,-154 53,0 84,35 84,96zm497 -60c0,-17 0,-34 0,-50 0,-54 -27,-88 -101,-88 -126,0 -180,96 -180,230 0,91 0,182 0,272 0,55 37,90 96,90 12,0 23,0 34,0 0,-116 0,-233 0,-349 0,-90 26,-125 80,-125 20,0 49,8 66,20 2,0 4,0 5,0zm413 270c0,-86 -54,-135 -153,-162 -77,-21 -90,-35 -90,-69 0,-40 24,-70 92,-70 58,0 107,28 132,58 2,0 4,0 6,0 0,-16 0,-33 0,-49 0,-64 -46,-125 -151,-125 -135,0 -207,91 -207,198 0,85 49,132 149,158 75,19 94,36 94,73 0,43 -25,68 -80,68 -61,0 -115,-25 -145,-57 -1,0 -3,0 -5,0 0,18 0,36 0,54 0,69 63,120 156,120 129,0 202,-74 202,-197z"/>
  <path class="fil10" d="M3175 2678c0,-139 -92,-216 -195,-216 -141,0 -235,120 -235,319 0,185 111,295 235,295 132,0 176,-56 176,-124 0,-16 0,-31 0,-46 -2,0 -4,0 -6,0 -38,43 -89,55 -145,55 -70,0 -122,-45 -130,-134 28,-1 56,-1 84,-2 155,-2 216,-36 216,-147zm-122 -9c0,43 -20,55 -126,57 -18,1 -36,1 -53,1 0,-59 17,-154 95,-154 53,0 84,35 84,96zm612 -134c0,-34 -18,-60 -55,-60 -20,0 -40,0 -60,0 -19,147 -60,301 -102,407 -43,-110 -70,-233 -87,-338 -4,-32 -28,-69 -72,-69 -22,0 -45,0 -68,0 24,199 88,412 169,556 18,33 39,39 59,39 13,0 25,0 37,0 55,-102 96,-211 135,-343 18,-58 44,-162 44,-192zm474 143c0,-139 -92,-216 -194,-216 -142,0 -235,120 -235,319 0,185 111,295 235,295 131,0 175,-56 175,-124 0,-16 0,-31 0,-46 -2,0 -4,0 -6,0 -38,43 -89,55 -144,55 -71,0 -122,-45 -131,-134 28,-1 56,-1 84,-2 155,-2 216,-36 216,-147zm-121 -9c0,43 -21,55 -127,57 -18,1 -35,1 -53,1 0,-59 17,-154 96,-154 52,0 84,35 84,96zm459 327c0,-11 0,-22 0,-33 -10,0 -20,0 -30,0 -57,0 -80,-18 -80,-77 0,-173 0,-347 0,-521 0,-54 -36,-86 -93,-86 -12,0 -24,0 -36,0 0,207 0,414 0,620 0,118 56,173 156,173 52,0 83,-25 83,-76zm507 -237c0,-167 -81,-297 -226,-297 -160,0 -239,130 -239,318 0,160 81,296 228,296 158,0 237,-135 237,-317zm-131 23c0,113 -33,175 -96,175 -76,0 -107,-68 -107,-198 0,-114 35,-180 97,-180 72,0 106,60 106,203zm686 -30c0,-173 -87,-290 -222,-290 -152,0 -237,93 -237,311 0,122 0,245 0,367 0,70 40,108 98,108 10,0 21,0 31,0 0,-84 0,-167 0,-251 22,49 69,79 123,79 112,0 207,-84 207,-324zm-130 31c0,116 -33,174 -89,174 -69,0 -112,-55 -112,-210 0,-110 37,-168 91,-168 70,0 110,53 110,204zm637 -105c0,-139 -92,-216 -195,-216 -141,0 -235,120 -235,319 0,185 111,295 235,295 132,0 176,-56 176,-124 0,-16 0,-31 0,-46 -2,0 -4,0 -6,0 -38,43 -89,55 -144,55 -71,0 -122,-45 -131,-134 28,-1 56,-1 84,-2 155,-2 216,-36 216,-147zm-122 -9c0,43 -20,55 -126,57 -18,1 -35,1 -53,1 0,-59 17,-154 96,-154 52,0 83,35 83,96zm498 -60c0,-17 0,-34 0,-50 0,-54 -27,-88 -101,-88 -127,0 -181,96 -181,230 0,91 0,182 0,272 0,55 37,90 97,90 11,0 22,0 34,0 0,-116 0,-233 0,-349 0,-90 26,-125 79,-125 21,0 49,8 66,20 2,0 4,0 6,0zm412 270c0,-86 -54,-135 -153,-162 -76,-21 -89,-35 -89,-69 0,-40 24,-70 91,-70 59,0 108,28 133,58 2,0 3,0 5,0 0,-16 0,-33 0,-49 0,-64 -45,-125 -151,-125 -135,0 -207,91 -207,198 0,85 49,132 149,158 75,19 94,36 94,73 0,43 -25,68 -80,68 -61,0 -115,-25 -144,-57 -2,0 -4,0 -6,0 0,18 0,36 0,54 0,69 63,120 156,120 129,0 202,-74 202,-197z"/>
  <path class="fil11" d="M3177 2678c0,-139 -92,-216 -194,-216 -142,0 -235,120 -235,319 0,185 111,295 235,295 131,0 175,-56 175,-124 0,-16 0,-31 0,-46 -2,0 -4,0 -6,0 -38,43 -89,55 -144,55 -71,0 -122,-45 -131,-134 28,-1 56,-1 84,-2 155,-2 216,-36 216,-147zm-121 -9c0,43 -21,55 -127,57 -17,1 -35,1 -53,1 0,-59 17,-154 96,-154 52,0 84,35 84,96zm611 -134c0,-34 -17,-60 -54,-60 -21,0 -41,0 -61,0 -19,147 -60,301 -101,407 -44,-110 -71,-233 -87,-338 -5,-32 -29,-69 -72,-69 -23,0 -46,0 -69,0 24,199 88,412 169,556 18,33 39,39 60,39 12,0 24,0 37,0 54,-102 96,-211 135,-343 17,-58 43,-162 43,-192zm475 143c0,-139 -93,-216 -195,-216 -142,0 -235,120 -235,319 0,185 111,295 235,295 132,0 175,-56 175,-124 0,-16 0,-31 0,-46 -2,0 -3,0 -5,0 -38,43 -90,55 -145,55 -71,0 -122,-45 -131,-134 28,-1 56,-1 84,-2 156,-2 217,-36 217,-147zm-122 -9c0,43 -21,55 -126,57 -18,1 -36,1 -54,1 0,-59 18,-154 96,-154 52,0 84,35 84,96zm459 327c0,-11 0,-22 0,-33 -10,0 -19,0 -29,0 -58,0 -81,-18 -81,-77 0,-173 0,-347 0,-521 0,-54 -36,-86 -92,-86 -12,0 -24,0 -36,0 0,207 0,414 0,620 0,118 55,173 155,173 53,0 83,-25 83,-76zm507 -237c0,-167 -80,-297 -226,-297 -160,0 -238,130 -238,318 0,160 80,296 227,296 158,0 237,-135 237,-317zm-130 23c0,113 -34,175 -97,175 -75,0 -107,-68 -107,-198 0,-114 35,-180 97,-180 72,0 107,60 107,203zm685 -30c0,-173 -87,-290 -222,-290 -152,0 -237,93 -237,311 0,122 0,245 0,367 0,70 40,108 98,108 11,0 21,0 32,0 0,-84 0,-167 0,-251 21,49 68,79 123,79 112,0 206,-84 206,-324zm-130 31c0,116 -33,174 -88,174 -70,0 -112,-55 -112,-210 0,-110 37,-168 90,-168 71,0 110,53 110,204zm638 -105c0,-139 -93,-216 -195,-216 -142,0 -235,120 -235,319 0,185 111,295 235,295 132,0 175,-56 175,-124 0,-16 0,-31 0,-46 -2,0 -4,0 -5,0 -38,43 -90,55 -145,55 -71,0 -122,-45 -131,-134 28,-1 56,-1 84,-2 156,-2 217,-36 217,-147zm-122 -9c0,43 -21,55 -126,57 -18,1 -36,1 -54,1 0,-59 18,-154 96,-154 52,0 84,35 84,96zm497 -60c0,-17 0,-34 0,-50 0,-54 -27,-88 -101,-88 -126,0 -181,96 -181,230 0,91 0,182 0,272 0,55 37,90 97,90 11,0 23,0 34,0 0,-116 0,-233 0,-349 0,-90 26,-125 79,-125 21,0 49,8 67,20 2,0 3,0 5,0zm413 270c0,-86 -55,-135 -154,-162 -76,-21 -89,-35 -89,-69 0,-40 24,-70 91,-70 59,0 108,28 133,58 2,0 4,0 6,0 0,-16 0,-33 0,-49 0,-64 -46,-125 -152,-125 -135,0 -206,91 -206,198 0,85 49,132 149,158 75,19 93,36 93,73 0,43 -25,68 -79,68 -61,0 -116,-25 -145,-57 -2,0 -4,0 -5,0 0,18 0,36 0,54 0,69 63,120 155,120 130,0 203,-74 203,-197z"/>
  <path class="fil12" d="M3180 2678c0,-139 -93,-216 -195,-216 -142,0 -235,120 -235,319 0,185 111,295 235,295 132,0 175,-56 175,-124 0,-16 0,-31 0,-46 -2,0 -3,0 -5,0 -38,43 -89,55 -145,55 -71,0 -122,-45 -131,-134 28,-1 56,-1 84,-2 156,-2 217,-36 217,-147zm-122 -9c0,43 -21,55 -126,57 -18,1 -36,1 -54,1 0,-59 18,-154 96,-154 52,0 84,35 84,96zm612 -134c0,-34 -18,-60 -55,-60 -20,0 -40,0 -61,0 -18,147 -60,301 -101,407 -44,-110 -71,-233 -87,-338 -4,-32 -28,-69 -72,-69 -23,0 -46,0 -68,0 23,199 88,412 168,556 19,33 39,39 60,39 12,0 25,0 37,0 54,-102 96,-211 135,-343 17,-58 44,-162 44,-192zm474 143c0,-139 -92,-216 -195,-216 -141,0 -235,120 -235,319 0,185 111,295 235,295 132,0 176,-56 176,-124 0,-16 0,-31 0,-46 -2,0 -4,0 -6,0 -38,43 -89,55 -145,55 -70,0 -122,-45 -130,-134 28,-1 56,-1 84,-2 155,-2 216,-36 216,-147zm-122 -9c0,43 -20,55 -126,57 -18,1 -36,1 -53,1 0,-59 17,-154 95,-154 53,0 84,35 84,96zm460 327c0,-11 0,-22 0,-33 -10,0 -20,0 -30,0 -58,0 -80,-18 -80,-77 0,-173 0,-347 0,-521 0,-54 -36,-86 -93,-86 -12,0 -24,0 -36,0 0,207 0,414 0,620 0,118 56,173 156,173 52,0 83,-25 83,-76zm507 -237c0,-167 -81,-297 -227,-297 -160,0 -238,130 -238,318 0,160 81,296 227,296 158,0 238,-135 238,-317zm-131 23c0,113 -34,175 -97,175 -75,0 -106,-68 -106,-198 0,-114 34,-180 96,-180 72,0 107,60 107,203zm686 -30c0,-173 -87,-290 -222,-290 -153,0 -237,93 -237,311 0,122 0,245 0,367 0,70 40,108 97,108 11,0 22,0 32,0 0,-84 0,-167 0,-251 22,49 69,79 123,79 112,0 207,-84 207,-324zm-131 31c0,116 -32,174 -88,174 -70,0 -112,-55 -112,-210 0,-110 37,-168 90,-168 71,0 110,53 110,204zm638 -105c0,-139 -92,-216 -195,-216 -141,0 -235,120 -235,319 0,185 111,295 235,295 132,0 175,-56 175,-124 0,-16 0,-31 0,-46 -1,0 -3,0 -5,0 -38,43 -89,55 -145,55 -71,0 -122,-45 -130,-134 28,-1 55,-1 83,-2 156,-2 217,-36 217,-147zm-122 -9c0,43 -21,55 -126,57 -18,1 -36,1 -53,1 0,-59 17,-154 95,-154 53,0 84,35 84,96zm498 -60c0,-17 0,-34 0,-50 0,-54 -28,-88 -102,-88 -126,0 -180,96 -180,230 0,91 0,182 0,272 0,55 37,90 96,90 12,0 23,0 34,0 0,-116 0,-233 0,-349 0,-90 26,-125 80,-125 20,0 49,8 66,20 2,0 4,0 6,0zm412 270c0,-86 -54,-135 -153,-162 -77,-21 -90,-35 -90,-69 0,-40 24,-70 92,-70 59,0 107,28 133,58 1,0 3,0 5,0 0,-16 0,-33 0,-49 0,-64 -46,-125 -151,-125 -135,0 -207,91 -207,198 0,85 49,132 149,158 75,19 94,36 94,73 0,43 -25,68 -80,68 -61,0 -115,-25 -145,-57 -1,0 -3,0 -5,0 0,18 0,36 0,54 0,69 63,120 156,120 129,0 202,-74 202,-197z"/>
  <path class="fil12" d="M3182 2678c0,-139 -92,-216 -195,-216 -141,0 -235,120 -235,319 0,185 111,295 235,295 132,0 176,-56 176,-124 0,-16 0,-31 0,-46 -2,0 -4,0 -6,0 -38,43 -89,55 -145,55 -70,0 -122,-45 -130,-134 28,-1 56,-1 84,-2 155,-2 216,-36 216,-147zm-122 -9c0,43 -20,55 -126,57 -18,1 -36,1 -53,1 0,-59 17,-154 95,-154 53,0 84,35 84,96zm612 -134c0,-34 -17,-60 -54,-60 -21,0 -41,0 -61,0 -19,147 -60,301 -102,407 -43,-110 -70,-233 -87,-338 -4,-32 -28,-69 -72,-69 -22,0 -45,0 -68,0 24,199 88,412 169,556 18,33 39,39 59,39 13,0 25,0 37,0 55,-102 96,-211 135,-343 18,-58 44,-162 44,-192zm474 143c0,-139 -92,-216 -194,-216 -142,0 -235,120 -235,319 0,185 111,295 235,295 131,0 175,-56 175,-124 0,-16 0,-31 0,-46 -2,0 -4,0 -6,0 -38,43 -89,55 -144,55 -71,0 -122,-45 -131,-134 28,-1 56,-1 84,-2 156,-2 216,-36 216,-147zm-121 -9c0,43 -21,55 -127,57 -17,1 -35,1 -53,1 0,-59 17,-154 96,-154 52,0 84,35 84,96zm459 327c0,-11 0,-22 0,-33 -10,0 -20,0 -30,0 -57,0 -80,-18 -80,-77 0,-173 0,-347 0,-521 0,-54 -36,-86 -93,-86 -12,0 -24,0 -35,0 0,207 0,414 0,620 0,118 55,173 155,173 52,0 83,-25 83,-76zm507 -237c0,-167 -80,-297 -226,-297 -160,0 -239,130 -239,318 0,160 81,296 228,296 158,0 237,-135 237,-317zm-131 23c0,113 -33,175 -96,175 -75,0 -107,-68 -107,-198 0,-114 35,-180 97,-180 72,0 106,60 106,203zm686 -30c0,-173 -87,-290 -222,-290 -152,0 -237,93 -237,311 0,122 0,245 0,367 0,70 40,108 98,108 10,0 21,0 31,0 0,-84 0,-167 0,-251 22,49 69,79 123,79 112,0 207,-84 207,-324zm-130 31c0,116 -33,174 -89,174 -69,0 -112,-55 -112,-210 0,-110 37,-168 91,-168 70,0 110,53 110,204zm637 -105c0,-139 -92,-216 -194,-216 -142,0 -236,120 -236,319 0,185 111,295 236,295 131,0 175,-56 175,-124 0,-16 0,-31 0,-46 -2,0 -4,0 -6,0 -38,43 -89,55 -144,55 -71,0 -122,-45 -131,-134 28,-1 56,-1 84,-2 155,-2 216,-36 216,-147zm-122 -9c0,43 -20,55 -126,57 -18,1 -35,1 -53,1 0,-59 17,-154 96,-154 52,0 83,35 83,96zm498 -60c0,-17 0,-34 0,-50 0,-54 -27,-88 -101,-88 -127,0 -181,96 -181,230 0,91 0,182 0,272 0,55 37,90 97,90 11,0 22,0 34,0 0,-116 0,-233 0,-349 0,-90 26,-125 79,-125 21,0 49,8 66,20 2,0 4,0 6,0zm412 270c0,-86 -54,-135 -153,-162 -76,-21 -89,-35 -89,-69 0,-40 24,-70 91,-70 59,0 108,28 133,58 2,0 3,0 5,0 0,-16 0,-33 0,-49 0,-64 -45,-125 -151,-125 -135,0 -207,91 -207,198 0,85 49,132 149,158 75,19 94,36 94,73 0,43 -25,68 -80,68 -60,0 -115,-25 -144,-57 -2,0 -4,0 -6,0 0,18 0,36 0,54 0,69 63,120 156,120 129,0 202,-74 202,-197z"/>
  <path class="fil12" d="M3184 2678c0,-139 -92,-216 -194,-216 -9,0 -18,0 -26,1 -8,-1 -16,-1 -24,-1 -141,0 -235,120 -235,319 0,185 111,295 235,295 11,0 20,-1 30,-1 6,0 13,1 20,1 131,0 175,-56 175,-124l0 -46 -6 0c-13,15 -27,26 -43,35l0 -35 -6 0c-31,36 -71,50 -115,54 -61,-8 -103,-53 -111,-133l84 -2c156,-2 216,-36 216,-147zm3483 -98c48,6 87,30 109,56l5 0 0 -35c19,10 34,22 44,35l6 0 0 -49c0,-64 -46,-125 -152,-125 -8,0 -17,0 -25,1 -8,-1 -16,-1 -24,-1 -109,0 -177,59 -199,139l0 -42c0,-54 -27,-88 -101,-88 -9,0 -17,0 -25,1 -8,-1 -16,-1 -24,-1 -127,0 -181,96 -181,230l0 272c0,55 37,90 97,90l34 0 0 -1c5,0 10,1 15,1l34 0 0 -349c0,-75 18,-112 55,-122 15,3 30,9 41,17l6 0 0 -17c16,3 32,9 44,17l3 0c-4,16 -6,33 -6,51 0,85 49,132 149,158 75,19 94,36 94,73 0,37 -18,60 -57,67 -50,-6 -93,-29 -118,-56l-5 0 0 33c-18,-9 -33,-21 -44,-33l-6 0 0 54c0,69 63,120 156,120 9,0 18,-1 26,-1 8,0 15,1 23,1 130,0 203,-74 203,-197 0,-86 -55,-135 -154,-162 -76,-21 -89,-35 -89,-69 0,-35 18,-62 66,-68zm-832 -117c-8,-1 -16,-1 -23,-1 -142,0 -236,120 -236,319 0,185 111,295 236,295 10,0 20,-1 29,-1 6,0 13,1 20,1 132,0 175,-56 175,-124l0 -46 -5 0c-13,15 -28,26 -44,35l0 -35 -6 0c-31,36 -71,50 -115,54 -60,-8 -103,-53 -111,-133l84 -2c156,-2 217,-36 217,-147 0,-139 -93,-216 -195,-216 -9,0 -18,0 -26,1zm49 206c0,43 -20,55 -126,57l-4 0c0,-53 14,-133 72,-150 37,10 58,43 58,93zm-585 -206c-7,-1 -14,-1 -22,-1 -152,0 -237,93 -237,311l0 367c0,70 40,108 98,108l31 0 0 -2c6,1 12,2 18,2l32 0 0 -193c21,13 46,21 73,21 10,0 18,-1 27,-2 8,1 15,2 23,2 112,0 207,-84 207,-324 0,-173 -88,-290 -223,-290 -9,0 -18,0 -27,1zm70 320c0,100 -25,157 -67,171 -53,-14 -84,-74 -84,-207 0,-95 27,-151 69,-164 53,13 82,70 82,200zm-628 -320c-7,-1 -15,-1 -23,-1 -160,0 -239,130 -239,318 0,160 81,296 228,296 9,0 17,-1 25,-2 8,1 16,2 24,2 158,0 237,-135 237,-317 0,-167 -80,-297 -226,-297 -9,0 -17,0 -26,1zm72 319c0,98 -25,158 -73,172 -57,-15 -81,-82 -81,-195 0,-100 27,-162 75,-176 53,14 79,75 79,199zm-565 -502c-4,-1 -9,-1 -14,-1l-35 0 0 620c0,118 55,173 155,173 8,0 15,0 22,-1 8,1 18,1 28,1 52,0 82,-25 82,-76l0 -33 -29 0c-58,0 -81,-18 -81,-77l0 -521c0,-54 -36,-86 -92,-86l-36 0 0 1zm-320 183c-8,-1 -15,-1 -23,-1 -142,0 -235,120 -235,319 0,185 111,295 235,295 10,0 20,-1 29,-1 7,0 13,1 20,1 132,0 175,-56 175,-124l0 -46 -5 0c-13,15 -28,26 -44,35l0 -35 -6 0c-31,36 -71,50 -115,54 -60,-8 -103,-53 -111,-133l84 -2c156,-2 217,-36 217,-147 0,-139 -93,-216 -195,-216 -9,0 -17,0 -26,1zm50 206c0,43 -21,55 -127,57l-4 0c1,-53 15,-133 73,-150 36,10 58,43 58,93zm-419 -194l-49 0c-15,118 -45,240 -77,338 -30,-90 -49,-185 -62,-269 -5,-32 -29,-69 -72,-69l-50 0 -19 0 -49 0c24,199 88,412 169,556 18,33 39,39 59,39l37 0 1 -1c4,1 8,1 12,1l37 0c54,-102 96,-211 135,-343 17,-58 43,-162 43,-192 0,-34 -17,-60 -54,-60l-49 0 -12 0zm-546 194c0,43 -20,55 -126,57l-4 0c0,-53 14,-133 72,-150 37,10 58,43 58,93z"/>
  <path class="fil13" d="M3184 2678c0,-139 -92,-216 -194,-216 -142,0 -235,120 -235,319 0,185 111,295 235,295 131,0 175,-56 175,-124l0 -46 -6 0c-38,43 -89,55 -144,55 -71,0 -122,-45 -131,-134l84 -2c156,-2 216,-36 216,-147zm3660 201c0,-86 -55,-135 -154,-162 -76,-21 -89,-35 -89,-69 0,-40 24,-70 91,-70 59,0 108,28 133,58l6 0 0 -49c0,-64 -46,-125 -152,-125 -135,0 -206,91 -206,198 0,85 49,132 149,158 75,19 93,36 93,73 0,43 -25,68 -79,68 -61,0 -116,-25 -145,-57l-5 0 0 54c0,69 63,120 155,120 130,0 203,-74 203,-197zm-413 -270l0 -50c0,-54 -27,-88 -101,-88 -126,0 -181,96 -181,230l0 272c0,55 37,90 97,90l34 0 0 -349c0,-90 26,-125 79,-125 21,0 49,8 67,20l5 0zm-375 69c0,-139 -93,-216 -195,-216 -142,0 -235,120 -235,319 0,185 111,295 235,295 132,0 175,-56 175,-124l0 -46 -5 0c-38,43 -90,55 -145,55 -71,0 -122,-45 -131,-134l84 -2c156,-2 217,-36 217,-147zm-122 -9c0,43 -21,55 -126,57l-54 1c0,-59 18,-154 96,-154 52,0 84,35 84,96zm-385 83c0,-173 -88,-290 -223,-290 -152,0 -237,93 -237,311l0 367c0,70 40,108 98,108l32 0 0 -251c21,49 68,79 123,79 112,0 207,-84 207,-324zm-131 31c0,116 -33,174 -88,174 -70,0 -112,-55 -112,-210 0,-110 37,-168 90,-168 71,0 110,53 110,204zm-425 -24c0,-167 -80,-297 -226,-297 -160,0 -238,130 -238,318 0,160 80,296 227,296 158,0 237,-135 237,-317zm-130 23c0,113 -34,175 -97,175 -75,0 -107,-68 -107,-198 0,-114 35,-180 97,-180 72,0 107,60 107,203zm-377 214l0 -33 -29 0c-58,0 -81,-18 -81,-77l0 -521c0,-54 -36,-86 -92,-86l-36 0 0 620c0,118 55,173 156,173 52,0 82,-25 82,-76zm-337 -318c0,-139 -93,-216 -195,-216 -141,0 -235,120 -235,319 0,185 111,295 235,295 132,0 175,-56 175,-124l0 -46 -5 0c-38,43 -89,55 -145,55 -71,0 -122,-45 -131,-134l84 -2c156,-2 217,-36 217,-147zm-122 -9c0,43 -21,55 -126,57l-54 1c0,-59 18,-154 96,-154 52,0 84,35 84,96zm-353 -134c0,-34 -17,-60 -54,-60l-61 0c-19,147 -60,301 -101,407 -44,-110 -71,-233 -87,-338 -5,-32 -29,-69 -72,-69l-69 0c24,199 88,412 169,556 18,33 39,39 60,39l37 0c54,-102 96,-211 135,-343 17,-58 43,-162 43,-192zm-611 134c0,43 -21,55 -127,57l-53 1c0,-59 17,-154 96,-154 52,0 84,35 84,96z"/>
  <g style="clip-path:url(#id0)">
   <g id="_1301202944">
    <path id="1" class="fil14" d="M3184 2678c0,-139 -92,-216 -194,-216 -123,0 -209,90 -230,243 88,49 197,84 321,109 73,-17 103,-57 103,-136zm3613 91c-96,-11 -196,-18 -299,-22 -17,-23 -25,-52 -25,-87 0,-107 71,-198 206,-198 106,0 152,61 152,125l0 49 -6 0c-25,-30 -74,-58 -133,-58 -67,0 -91,30 -91,70 0,34 13,48 89,69 45,12 81,29 107,52zm-517 -27c-43,-1 -87,-1 -131,0l0 -41c0,-134 55,-230 181,-230 74,0 101,34 101,88l0 50 -5 0c-18,-12 -46,-20 -67,-20 -53,0 -79,35 -79,125l0 28zm-234 1c-138,3 -278,9 -420,16 7,-186 99,-297 235,-297 102,0 195,77 195,216 0,26 -4,47 -10,65zm-498 20c-43,3 -87,5 -130,8 -2,-142 -41,-192 -110,-192 -53,0 -90,58 -90,168 0,13 0,26 1,37 -44,3 -87,6 -130,9l0 -20c0,-218 85,-311 237,-311 135,0 223,117 223,290 0,4 -1,8 -1,11zm-556 37l-130 10c1,-9 1,-18 1,-28 0,-143 -35,-203 -107,-203 -62,0 -97,66 -97,180 0,24 1,45 4,65 -44,3 -88,6 -131,9 -2,-17 -3,-35 -3,-53 0,-188 78,-318 238,-318 146,0 226,130 226,297 0,14 0,28 -1,41zm-616 43c-43,3 -86,5 -128,7l0 -571 36 0c56,0 92,32 92,86l0 478zm-521 22c-43,0 -86,1 -128,1 -5,-26 -8,-55 -8,-85 0,-199 94,-319 235,-319 102,0 195,77 195,216 0,111 -61,145 -217,147l-84 2c2,13 4,26 7,38zm-269 -1c-41,-1 -80,-3 -120,-5 39,-104 76,-247 93,-384l61 0c37,0 54,26 54,60 0,30 -26,134 -43,192 -15,49 -29,94 -45,137zm-137 -6c-45,-2 -89,-6 -131,-10 -41,-116 -73,-247 -88,-373l69 0c43,0 67,37 72,69 15,98 39,211 78,314zm-386 -189c0,43 -21,55 -127,57l-53 1c0,-59 17,-154 96,-154 52,0 84,35 84,96z"/>
   </g>
  </g>
  <path class="fil1" d="M3184 2678c0,-139 -92,-216 -194,-216 -142,0 -235,120 -235,319 0,185 111,295 235,295 131,0 175,-56 175,-124l0 -46 -6 0c-38,43 -89,55 -144,55 -71,0 -122,-45 -131,-134l84 -2c156,-2 216,-36 216,-147zm3660 201c0,-86 -55,-135 -154,-162 -76,-21 -89,-35 -89,-69 0,-40 24,-70 91,-70 59,0 108,28 133,58l6 0 0 -49c0,-64 -46,-125 -152,-125 -135,0 -206,91 -206,198 0,85 49,132 149,158 75,19 93,36 93,73 0,43 -25,68 -79,68 -61,0 -116,-25 -145,-57l-5 0 0 54c0,69 63,120 155,120 130,0 203,-74 203,-197zm-413 -270l0 -50c0,-54 -27,-88 -101,-88 -126,0 -181,96 -181,230l0 272c0,55 37,90 97,90l34 0 0 -349c0,-90 26,-125 79,-125 21,0 49,8 67,20l5 0zm-375 69c0,-139 -93,-216 -195,-216 -142,0 -235,120 -235,319 0,185 111,295 235,295 132,0 175,-56 175,-124l0 -46 -5 0c-38,43 -90,55 -145,55 -71,0 -122,-45 -131,-134l84 -2c156,-2 217,-36 217,-147zm-122 -9c0,43 -21,55 -126,57l-54 1c0,-59 18,-154 96,-154 52,0 84,35 84,96zm-385 83c0,-173 -88,-290 -223,-290 -152,0 -237,93 -237,311l0 367c0,70 40,108 98,108l32 0 0 -251c21,49 68,79 123,79 112,0 207,-84 207,-324zm-131 31c0,116 -33,174 -88,174 -70,0 -112,-55 -112,-210 0,-110 37,-168 90,-168 71,0 110,53 110,204zm-425 -24c0,-167 -80,-297 -226,-297 -160,0 -238,130 -238,318 0,160 80,296 227,296 158,0 237,-135 237,-317zm-130 23c0,113 -34,175 -97,175 -75,0 -107,-68 -107,-198 0,-114 35,-180 97,-180 72,0 107,60 107,203zm-377 214l0 -33 -29 0c-58,0 -81,-18 -81,-77l0 -521c0,-54 -36,-86 -92,-86l-36 0 0 620c0,118 55,173 156,173 52,0 82,-25 82,-76zm-337 -318c0,-139 -93,-216 -195,-216 -141,0 -235,120 -235,319 0,185 111,295 235,295 132,0 175,-56 175,-124l0 -46 -5 0c-38,43 -89,55 -145,55 -71,0 -122,-45 -131,-134l84 -2c156,-2 217,-36 217,-147zm-122 -9c0,43 -21,55 -126,57l-54 1c0,-59 18,-154 96,-154 52,0 84,35 84,96zm-353 -134c0,-34 -17,-60 -54,-60l-61 0c-19,147 -60,301 -101,407 -44,-110 -71,-233 -87,-338 -5,-32 -29,-69 -72,-69l-69 0c24,199 88,412 169,556 18,33 39,39 60,39l37 0c54,-102 96,-211 135,-343 17,-58 43,-162 43,-192zm-611 134c0,43 -21,55 -127,57l-53 1c0,-59 17,-154 96,-154 52,0 84,35 84,96z"/>
 </g>
</svg>
